<svg width="300" height="300" viewBox="0 0 300 300" fill="none" xmlns="http://www.w3.org/2000/svg">
<path d="M188.878 178.789L155.018 212.649L158.297 224.447L146.364 264.664L126.667 213.087L82.5713 168.991L93.5869 157.975L137.684 202.07L137.681 202.072L141.7 205.898L145.021 202.658L145.019 202.655L196.195 151.478L188.878 178.789ZM199.976 137.37L167.704 169.643L167.702 169.641L141.727 195.616L118.104 171.993L133.087 157.009L113.818 137.739L124.834 126.723L144.105 145.994L144.103 145.996L151.54 153.434L211.825 93.1475L199.976 137.37ZM124.832 126.721L82.5684 168.985L72.7188 159.136L114.983 116.872L124.832 126.721ZM227.293 35.418L215.487 79.4785L151.215 143.752L135.028 127.565L227.234 35.3594L227.293 35.418Z" fill="white"/>
</svg>
