<svg width="24" height="24" viewBox="0 0 24 24" fill="none" xmlns="http://www.w3.org/2000/svg">
<g clip-path="url(#clip0_16078_3672)">
<path d="M14.2501 20.25H20.2501C20.9914 20.25 21.6214 20.0828 22.1445 19.7914L14.2501 15.0821V20.25ZM23.8726 17.3287C23.9581 16.9474 24.0016 16.5435 24.0016 16.1246V14.2496H18.7103L23.871 17.3287M0.131301 6.65963C0.0423184 7.05858 -0.00170597 7.46625 5.05513e-05 7.875V9.75H5.31155L0.131301 6.65963ZM9.75005 3.75H3.75005C3.01393 3.75 2.38805 3.915 1.86718 4.20225L9.75005 8.90475V3.75ZM1.89118 19.8098C2.40718 20.0888 3.0248 20.25 3.75005 20.25H9.75005V15.1215L1.89118 19.8098ZM5.05513e-05 14.25V16.125C5.05513e-05 16.5566 0.0458006 16.9725 0.136176 17.3636L5.3558 14.25H5.05513e-05ZM22.1682 4.22063C21.6409 3.92138 21.0023 3.75 20.2501 3.75H14.2501V8.94412L22.1682 4.22063ZM24.0001 9.75V7.875C24.0001 7.46475 23.9577 7.06913 23.8755 6.69488L18.7546 9.75H24.0001Z" fill="#2E3192"/>
<path d="M18.7545 9.75L23.8755 6.69488C23.6407 5.62088 23.0693 4.73175 22.1681 4.22063L14.25 8.94412V3.75H13.5V10.5H24V9.75H18.7545ZM0 13.5V14.25H5.35575L0.136125 17.3636C0.384 18.4343 0.97275 19.3133 1.89113 19.8098L9.75 15.1215V20.25H10.5V13.5H0ZM24 13.5H13.5V20.25H14.25V15.0821L22.1445 19.7917C23.0524 19.2862 23.631 18.402 23.871 17.3295L18.7103 14.25H24V13.5ZM9.75 3.75V8.90475L1.86713 4.20225C0.955875 4.70475 0.3735 5.5875 0.130875 6.65963L5.3115 9.75H0V10.5H10.5V3.75H9.75Z" fill="#E6E7E8"/>
<path d="M13.5 10.5V3.75H10.5V10.5H0V13.5H10.5V20.25H13.5V13.5H24V10.5H13.5Z" fill="#BE1E2D"/>
<path d="M8.22987 9.75181L0.711125 5.26344C0.5495 5.50344 0.41975 5.76744 0.3125 6.04869L6.51762 9.75181H8.22875M23.6619 18.0356L17.357 14.2518H15.611L23.2284 18.8339C23.4046 18.5868 23.5502 18.3193 23.6619 18.0371M22.7728 4.64844L14.2415 9.75181L15.9736 9.75294L23.3353 5.34556C23.171 5.04669 22.9978 4.85394 22.7728 4.64844ZM0.683 18.7049C0.851702 18.9618 1.0547 19.1945 1.28637 19.3964L9.77675 14.2518H8.06562L0.683 18.7049Z" fill="#BE1E2D"/>
</g>
<defs>
<clipPath id="clip0_16078_3672">
<rect width="24" height="24" fill="white"/>
</clipPath>
</defs>
</svg>
