<svg width="33" height="29" viewBox="0 0 33 29" fill="none" xmlns="http://www.w3.org/2000/svg">
<g clip-path="url(#clip0_13216_4700)">
<path d="M13.225 13.1316C14.9659 12.2995 15.8748 11.0403 15.8748 9.0803C15.8748 5.2151 12.995 4.27344 9.67181 4.27344H0.523438V23.6761H9.92913C13.4549 23.6761 16.7671 21.9844 16.7671 18.0425C16.7671 15.6063 15.612 13.805 13.225 13.1316ZM4.7883 7.58569H8.79037C10.3288 7.58569 11.7139 8.01819 11.7139 9.80298C11.7139 11.4509 10.6354 12.1133 9.11338 12.1133H4.7883V7.58569ZM9.3488 20.3803H4.7883V15.0369H9.4364C11.3143 15.0369 12.5023 15.8198 12.5023 17.8071C12.5023 19.7671 11.0843 20.3803 9.3488 20.3803ZM28.9759 7.20245H21.1087V5.29175H28.9759V7.20245ZM32.0582 16.8545C32.0582 12.6991 29.6274 9.2336 25.2202 9.2336C20.9389 9.2336 18.0318 12.4528 18.0318 16.6684C18.0318 21.0427 20.7856 24.0429 25.2202 24.0429C28.5763 24.0429 30.7498 22.5319 31.7954 19.3182H28.3901C28.0233 20.5171 26.5123 21.1522 25.3407 21.1522C23.0796 21.1522 21.8915 19.8273 21.8915 17.5772H32.0254C32.0418 17.3472 32.0582 17.1009 32.0582 16.8545ZM21.897 15.1464C22.0229 13.3014 23.2493 12.1462 25.0998 12.1462C27.0379 12.1462 28.0124 13.2849 28.1766 15.1464H21.897Z" fill="#1F2833"/>
</g>
<defs>
<clipPath id="clip0_13216_4700">
<rect width="31.5348" height="28.0309" fill="white" transform="translate(0.523438 0.148438)"/>
</clipPath>
</defs>
</svg>
