<svg width="25" height="24" viewBox="0 0 25 24" fill="none" xmlns="http://www.w3.org/2000/svg">
<g clip-path="url(#clip0_13216_4704)">
<path d="M5.7816 8.10705V23.761H0.569098V8.10705H5.7816ZM6.113 3.27426L6.11493 3.36894C6.11493 4.09261 5.80769 4.74381 5.31687 5.19984L5.31494 5.20081C5.02572 5.46511 4.68701 5.66949 4.31837 5.80216C3.94972 5.93482 3.55845 5.99314 3.16714 5.97374H3.1739H3.14202C2.75971 5.9916 2.37773 5.93228 2.01885 5.79931C1.65996 5.66635 1.33154 5.46247 1.05315 5.19984L1.05412 5.20081C0.795769 4.95154 0.592292 4.65109 0.456701 4.31869C0.321111 3.98629 0.256392 3.62924 0.266686 3.27039V3.27426L0.26572 3.20759C0.26572 2.47137 0.578759 1.80857 1.07827 1.34384L1.0802 1.34288C1.66065 0.814806 2.4267 0.538263 3.21061 0.573805H3.20482C3.58894 0.554868 3.97297 0.613079 4.33423 0.745004C4.69548 0.876928 5.02665 1.07989 5.30817 1.34191L5.30624 1.33998C5.5617 1.58555 5.76485 1.88024 5.9035 2.20633C6.04214 2.53243 6.1134 2.8832 6.113 3.23754V3.27812V3.27619V3.27426ZM24.5302 14.791V23.761H19.3341V15.3891C19.387 14.4704 19.1596 13.5573 18.6819 12.7708L18.6935 12.7911C18.4685 12.4749 18.1656 12.2223 17.8141 12.0578C17.4627 11.8932 17.0747 11.8223 16.6878 11.8519H16.6955C16.0908 11.83 15.498 12.0246 15.024 12.4007L15.0298 12.3969C14.5922 12.7499 14.2495 13.2065 14.0327 13.7253L14.025 13.7476C13.8934 14.163 13.8349 14.5981 13.852 15.0335V15.0268V23.7629H8.65596C8.67722 19.5613 8.68785 16.1546 8.68785 13.5427C8.68785 10.9309 8.68269 9.37242 8.67239 8.86743L8.65693 8.10898H13.853V10.3834H13.8211C14.0279 10.05 14.2414 9.76114 14.4762 9.49061L14.4685 9.49931C14.7396 9.20108 15.0321 8.9312 15.3457 8.68965L15.3612 8.67806C15.7631 8.36934 16.2193 8.13863 16.7061 7.99787L16.7351 7.99111C17.2992 7.82725 17.8839 7.74462 18.4713 7.7457H18.5476H18.5438C19.3536 7.71211 20.1611 7.85461 20.9106 8.16336C21.6601 8.47211 22.3336 8.93978 22.8848 9.53409L22.8877 9.53795C23.984 10.7334 24.5321 12.4841 24.5321 14.7901L24.5302 14.791Z" fill="#1F2833"/>
</g>
<defs>
<clipPath id="clip0_13216_4704">
<rect width="24.1543" height="23.1881" fill="white" transform="translate(0.265625 0.570312)"/>
</clipPath>
</defs>
</svg>
