<svg width="100" height="21" viewBox="0 0 100 21" fill="none" xmlns="http://www.w3.org/2000/svg">
<rect width="100" height="21" fill="black"/>
<rect width="1" height="1" fill="#F6FDFF"/>
<rect x="1" y="1" width="1" height="1" fill="#F6FDFF"/>
<rect x="5" y="3" width="1" height="1" fill="#F6FDFF"/>
<rect x="6" y="2" width="1" height="1" fill="#F6FDFF"/>
<rect x="17" y="2" width="1" height="1" fill="#F6FDFF"/>
<rect x="15" y="1" width="1" height="1" fill="#F6FDFF"/>
<rect x="18" width="1" height="1" fill="#F6FDFF"/>
<rect x="19" y="1" width="1" height="1" fill="#F6FDFF"/>
<rect x="13" y="1" width="1" height="1" fill="#F6FDFF"/>
<rect x="25" y="1" width="1" height="1" fill="#F6FDFF"/>
<rect x="29" width="1" height="1" fill="#F6FDFF"/>
<rect x="28" y="1" width="1" height="1" fill="#F6FDFF"/>
<rect x="36" y="2" width="1" height="1" fill="#F6FDFF"/>
<rect x="41" y="1" width="1" height="1" fill="#F6FDFF"/>
<rect x="40" width="1" height="1" fill="#F6FDFF"/>
<rect x="44" y="6" width="1" height="1" fill="#F6FDFF"/>
<rect x="46" y="4" width="1" height="1" fill="#F6FDFF"/>
<rect x="49" y="3" width="1" height="1" fill="#F6FDFF"/>
<rect x="62" y="1" width="1" height="1" fill="#F6FDFF"/>
<rect x="66" y="1" width="1" height="1" fill="#F6FDFF"/>
<rect x="71" width="1" height="1" fill="#F6FDFF"/>
<rect x="88" width="1" height="1" fill="#F6FDFF"/>
<rect x="88" y="1" width="1" height="1" fill="#F6FDFF"/>
<rect x="92" width="1" height="1" fill="#F6FDFF"/>
<rect x="96" width="1" height="1" fill="#F6FDFF"/>
<rect x="30" y="1" width="1" height="1" fill="#F6FDFF"/>
<rect x="32" width="1" height="1" fill="#F6FDFF"/>
<rect x="33" width="1" height="1" fill="#F6FDFF"/>
<rect x="34" y="1" width="1" height="1" fill="#F6FDFF"/>
<rect x="33" y="2" width="1" height="1" fill="#F6FDFF"/>
<rect x="32" y="4" width="1" height="1" fill="#F6FDFF"/>
<rect x="31" y="5" width="1" height="1" fill="#F6FDFF"/>
<rect x="24" y="5" width="1" height="1" fill="#F6FDFF"/>
<rect x="23" y="4" width="1" height="1" fill="#F6FDFF"/>
<rect x="18" y="5" width="1" height="1" fill="#F6FDFF"/>
<rect x="16" y="6" width="1" height="1" fill="#F6FDFF"/>
<rect x="12" y="7" width="1" height="1" fill="#F6FDFF"/>
<rect x="31" y="9" width="1" height="1" fill="#F6FDFF"/>
<rect x="34" y="8" width="1" height="1" fill="#F6FDFF"/>
<rect x="43" y="7" width="1" height="1" fill="#F6FDFF"/>
<rect x="39" y="5" width="1" height="1" fill="#F6FDFF"/>
<rect x="39" y="7" width="1" height="1" fill="#F6FDFF"/>
<rect x="24" y="9" width="1" height="1" fill="#F6FDFF"/>
<rect x="22" y="8" width="1" height="1" fill="#F6FDFF"/>
<rect x="54" y="8" width="1" height="1" fill="#F6FDFF"/>
<rect x="55" y="9" width="1" height="1" fill="#F6FDFF"/>
<rect x="60" y="6" width="1" height="1" fill="#F6FDFF"/>
<rect x="50" y="6" width="1" height="1" fill="#F6FDFF"/>
<rect x="54" y="5" width="1" height="1" fill="#F6FDFF"/>
<rect x="55" y="4" width="1" height="1" fill="#F6FDFF"/>
<rect x="58" y="5" width="1" height="1" fill="#F6FDFF"/>
<rect x="60" y="5" width="1" height="1" fill="#F6FDFF"/>
<rect x="64" y="3" width="1" height="1" fill="#F6FDFF"/>
<rect x="63" y="4" width="1" height="1" fill="#F6FDFF"/>
<rect x="67" y="6" width="1" height="1" fill="#F6FDFF"/>
<rect x="66" y="5" width="1" height="1" fill="#F6FDFF"/>
<rect x="67" y="4" width="1" height="1" fill="#F6FDFF"/>
<rect x="73" y="5" width="1" height="1" fill="#F6FDFF"/>
<rect x="74" y="6" width="1" height="1" fill="#F6FDFF"/>
<rect x="76" y="7" width="1" height="1" fill="#F6FDFF"/>
<rect x="77" y="6" width="1" height="1" fill="#F6FDFF"/>
<rect width="1" height="1" transform="matrix(-1 0 0 1 85 6)" fill="#F6FDFF"/>
<rect width="1" height="1" transform="matrix(-1 0 0 1 86 5)" fill="#F6FDFF"/>
<rect width="1" height="1" transform="matrix(-1 0 0 1 94 5)" fill="#F6FDFF"/>
<rect width="1" height="1" transform="matrix(-1 0 0 1 94 6)" fill="#F6FDFF"/>
<rect width="1" height="1" transform="matrix(-1 0 0 1 95 7)" fill="#F6FDFF"/>
<rect width="1" height="1" transform="matrix(-1 0 0 1 86 9)" fill="#F6FDFF"/>
<rect width="1" height="1" transform="matrix(-1 0 0 1 69 9)" fill="#F6FDFF"/>
<rect width="1" height="1" transform="matrix(-1 0 0 1 61 9)" fill="#F6FDFF"/>
<rect width="1" height="1" transform="matrix(-1 0 0 1 48 9)" fill="#F6FDFF"/>
<rect width="1" height="1" transform="matrix(-1 0 0 1 42 9)" fill="#F6FDFF"/>
<rect width="1" height="1" transform="matrix(-1 0 0 1 29 7)" fill="#F6FDFF"/>
<rect width="1" height="1" transform="matrix(-1 0 0 1 28 6)" fill="#F6FDFF"/>
<rect width="1" height="1" transform="matrix(-1 0 0 1 30 3)" fill="#F6FDFF"/>
<rect width="1" height="1" transform="matrix(-1 0 0 1 18 8)" fill="#F6FDFF"/>
<rect width="1" height="1" transform="matrix(-1 0 0 1 20 8)" fill="#F6FDFF"/>
<rect width="1" height="1" transform="matrix(-1 0 0 1 19 9)" fill="#F6FDFF"/>
<rect width="1" height="1" transform="matrix(-1 0 0 1 14 8)" fill="#F6FDFF"/>
<rect width="1" height="1" transform="matrix(-1 0 0 1 15 4)" fill="#F6FDFF"/>
<rect width="1" height="1" transform="matrix(-1 0 0 1 6 5)" fill="#F6FDFF"/>
<rect width="1" height="1" transform="matrix(-1 0 0 1 1 9)" fill="#F6FDFF"/>
<rect width="1" height="1" transform="matrix(-1 0 0 1 2 9)" fill="#F6FDFF"/>
<rect x="49" y="7" width="1" height="1" fill="#F6FDFF"/>
<rect x="71" y="8" width="1" height="1" fill="#F6FDFF"/>
<rect x="65" y="7" width="1" height="1" fill="#F6FDFF"/>
<rect x="65" y="8" width="1" height="1" fill="#F6FDFF"/>
<rect x="70" y="5" width="1" height="1" fill="#F6FDFF"/>
<rect x="80" y="7" width="1" height="1" fill="#F6FDFF"/>
<rect x="81" y="8" width="1" height="1" fill="#F6FDFF"/>
<rect x="78" y="8" width="1" height="1" fill="#F6FDFF"/>
<rect x="79" y="5" width="1" height="1" fill="#F6FDFF"/>
<rect x="88" y="6" width="1" height="1" fill="#F6FDFF"/>
<rect x="89" y="6" width="1" height="1" fill="#F6FDFF"/>
<rect x="91" y="8" width="1" height="1" fill="#F6FDFF"/>
<rect x="89" y="9" width="1" height="1" fill="#F6FDFF"/>
<rect x="97" y="7" width="1" height="1" fill="#F6FDFF"/>
<rect x="96" y="6" width="1" height="1" fill="#F6FDFF"/>
<rect x="99" y="5" width="1" height="1" fill="#F6FDFF"/>
<rect x="99" y="9" width="1" height="1" fill="#F6FDFF"/>
<rect x="11" y="4" width="1" height="1" fill="#F6FDFF"/>
<rect x="8" y="6" width="1" height="1" fill="#F6FDFF"/>
<rect x="3" y="7" width="1" height="1" fill="#F6FDFF"/>
<rect x="1" y="5" width="1" height="1" fill="#F6FDFF"/>
<rect x="7" y="9" width="1" height="1" fill="#F6FDFF"/>
<rect x="9" y="13" width="1" height="1" fill="#F6FDFF"/>
<rect x="6" y="15" width="1" height="1" fill="#F6FDFF"/>
<rect x="4" y="14" width="1" height="1" fill="#F6FDFF"/>
<rect x="2" y="12" width="1" height="1" fill="#F6FDFF"/>
<rect x="1" y="15" width="1" height="1" fill="#F6FDFF"/>
<rect x="6" y="12" width="1" height="1" fill="#F6FDFF"/>
<rect x="21" y="16" width="1" height="1" fill="#F6FDFF"/>
<rect x="17" y="14" width="1" height="1" fill="#F6FDFF"/>
<rect x="20" y="12" width="1" height="1" fill="#F6FDFF"/>
<rect x="15" y="12" width="1" height="1" fill="#F6FDFF"/>
<rect x="12" y="15" width="1" height="1" fill="#F6FDFF"/>
<rect x="30" y="18" width="1" height="1" fill="#F6FDFF"/>
<rect x="15" y="20" width="1" height="1" fill="#F6FDFF"/>
<rect x="2" y="20" width="1" height="1" fill="#F6FDFF"/>
<rect x="33" y="16" width="1" height="1" fill="#F6FDFF"/>
<rect x="29" y="13" width="1" height="1" fill="#F6FDFF"/>
<rect x="28" y="14" width="1" height="1" fill="#F6FDFF"/>
<rect x="40" y="15" width="1" height="1" fill="#F6FDFF"/>
<rect x="43" y="14" width="1" height="1" fill="#F6FDFF"/>
<rect x="37" y="12" width="1" height="1" fill="#F6FDFF"/>
<rect x="50" y="17" width="1" height="1" fill="#F6FDFF"/>
<rect x="52" y="15" width="1" height="1" fill="#F6FDFF"/>
<rect x="52" y="12" width="1" height="1" fill="#F6FDFF"/>
<rect x="60" y="18" width="1" height="1" fill="#F6FDFF"/>
<rect x="64" y="16" width="1" height="1" fill="#F6FDFF"/>
<rect x="43" y="20" width="1" height="1" fill="#F6FDFF"/>
<rect x="73" y="19" width="1" height="1" fill="#F6FDFF"/>
<rect x="77" y="16" width="1" height="1" fill="#F6FDFF"/>
<rect x="75" y="14" width="1" height="1" fill="#F6FDFF"/>
<rect x="73" y="13" width="1" height="1" fill="#F6FDFF"/>
<rect x="60" y="13" width="1" height="1" fill="#F6FDFF"/>
<rect x="87" y="16" width="1" height="1" fill="#F6FDFF"/>
<rect x="90" y="15" width="1" height="1" fill="#F6FDFF"/>
<rect x="83" y="13" width="1" height="1" fill="#F6FDFF"/>
<rect x="96" y="20" width="1" height="1" fill="#F6FDFF"/>
<rect x="99" y="15" width="1" height="1" fill="#F6FDFF"/>
<rect x="95" y="12" width="1" height="1" fill="#F6FDFF"/>
<rect x="83" y="20" width="1" height="1" fill="#F6FDFF"/>
<rect x="37" y="1" width="1" height="1" fill="#F6FDFF"/>
<rect x="37" width="1" height="1" fill="#F6FDFF"/>
<rect x="38" width="1" height="1" fill="#F6FDFF"/>
<rect x="48" width="1" height="1" fill="#F6FDFF"/>
<rect x="49" y="1" width="1" height="1" fill="#F6FDFF"/>
<rect x="47" y="1" width="1" height="1" fill="#F6FDFF"/>
<rect x="44" width="1" height="1" fill="#F6FDFF"/>
<rect x="43" width="1" height="1" fill="#F6FDFF"/>
<rect x="43" y="2" width="1" height="1" fill="#F6FDFF"/>
<rect x="52" y="2" width="1" height="1" fill="#F6FDFF"/>
<rect x="53" y="2" width="1" height="1" fill="#F6FDFF"/>
<rect x="54" y="1" width="1" height="1" fill="#F6FDFF"/>
<rect x="60" width="1" height="1" fill="#F6FDFF"/>
<rect x="60" y="1" width="1" height="1" fill="#F6FDFF"/>
<rect x="59" y="1" width="1" height="1" fill="#F6FDFF"/>
<rect x="57" y="2" width="1" height="1" fill="#F6FDFF"/>
<rect x="67" width="1" height="1" fill="#F6FDFF"/>
<rect x="56" width="1" height="1" fill="#F6FDFF"/>
<rect x="52" width="1" height="1" fill="#F6FDFF"/>
<rect x="70" y="1" width="1" height="1" fill="#F6FDFF"/>
<rect x="73" width="1" height="1" fill="#F6FDFF"/>
<rect x="74" y="1" width="1" height="1" fill="#F6FDFF"/>
<rect x="73" y="2" width="1" height="1" fill="#F6FDFF"/>
<rect x="83" y="2" width="1" height="1" fill="#F6FDFF"/>
<rect x="82" y="1" width="1" height="1" fill="#F6FDFF"/>
<rect x="84" width="1" height="1" fill="#F6FDFF"/>
<rect x="90" y="1" width="1" height="1" fill="#F6FDFF"/>
<rect x="92" y="2" width="1" height="1" fill="#F6FDFF"/>
<rect x="87" y="2" width="1" height="1" fill="#F6FDFF"/>
<rect x="93" y="1" width="1" height="1" fill="#F6FDFF"/>
<rect x="98" y="1" width="1" height="1" fill="#F6FDFF"/>
<rect x="97" width="1" height="1" fill="#F6FDFF"/>
<rect x="97" y="1" width="1" height="1" fill="#F6FDFF"/>
<rect x="96" y="2" width="1" height="1" fill="#F6FDFF"/>
<rect x="79" y="1" width="1" height="1" fill="#F6FDFF"/>
<rect x="78" width="1" height="1" fill="#F6FDFF"/>
<rect x="77" y="1" width="1" height="1" fill="#F6FDFF"/>
<rect x="76" y="2" width="1" height="1" fill="#F6FDFF"/>
<rect x="86" width="1" height="1" fill="#F6FDFF"/>
<rect x="69" y="2" width="1" height="1" fill="#F6FDFF"/>
<rect x="65" y="1" width="1" height="1" fill="#F6FDFF"/>
<rect x="63" width="1" height="1" fill="#F6FDFF"/>
<rect x="22" y="1" width="1" height="1" fill="#F6FDFF"/>
<rect x="23" width="1" height="1" fill="#F6FDFF"/>
<rect x="22" width="1" height="1" fill="#F6FDFF"/>
<rect x="21" width="1" height="1" fill="#F6FDFF"/>
<rect x="15" width="1" height="1" fill="#F6FDFF"/>
<rect x="9" width="1" height="1" fill="#F6FDFF"/>
<rect x="10" y="1" width="1" height="1" fill="#F6FDFF"/>
<rect x="6" width="1" height="1" fill="#F6FDFF"/>
<rect x="7" y="1" width="1" height="1" fill="#F6FDFF"/>
<rect x="5" width="1" height="1" fill="#F6FDFF"/>
<rect x="4" y="1" width="1" height="1" fill="#F6FDFF"/>
<rect x="2" y="3" width="1" height="1" fill="#F6FDFF"/>
</svg>
