<svg width="64" height="64" viewBox="0 0 64 64" fill="none" xmlns="http://www.w3.org/2000/svg">
<path d="M32.5964 12.2579L40.5429 21.8488L41.0185 22.4229H41.764H52.5391L45.3289 34.6918L44.8432 35.5182L45.3492 36.3323L52.3776 47.6405L37.7996 47.0083L36.8417 46.9667L36.3599 47.7957L29.7958 59.0904L23.4159 47.8118L22.9372 46.9655L21.9658 47.0083L7.43566 47.6489L14.448 34.3624L14.8301 33.6383L14.4611 32.9075L9.39957 22.8846L22.7524 22.4219L23.4232 22.3987L23.8734 21.9009L32.5964 12.2579Z" stroke="black" stroke-opacity="0.32" stroke-width="3.17151"/>
<path d="M32.6901 7.79367L39.2763 18.6575L39.7429 19.4272H40.643H52.7251L45.8162 31.3231L45.3158 32.1846L45.869 33.0132L53.8615 44.9847L39.6836 44.0784L38.707 44.0159L38.2074 44.8574L31.2927 56.5031L24.856 45.4319L24.3739 44.6027L23.4154 44.6381L11.3046 45.0847L17.4075 34.0156L17.8397 33.2318L17.3973 32.4539L9.98961 19.4272H23.9738H24.8223L25.2977 18.7243L32.6901 7.79367Z" stroke="url(#paint0_linear_13216_4712)" stroke-width="3.19648"/>
<g filter="url(#filter0_d_13216_4712)">
<path d="M9.8634 19.4609L52.7711 19.4609L31.3172 56.6201L9.8634 19.4609Z" stroke="url(#paint1_linear_13216_4712)" stroke-width="3.19648" shape-rendering="crispEdges"/>
</g>
<g filter="url(#filter1_d_13216_4712)">
<path d="M44.8346 10.1706L50.0894 10.169M47.465 12.7561L47.4612 7.4997" stroke="white" stroke-width="0.749176" stroke-linecap="round"/>
</g>
<g filter="url(#filter2_d_13216_4712)">
<path d="M12.4987 10.1706L17.7535 10.169M15.1291 12.7561L15.1253 7.4997" stroke="white" stroke-width="0.749176" stroke-linecap="round"/>
</g>
<g filter="url(#filter3_d_13216_4712)">
<path d="M29.3659 32.0221L34.6207 32.0205M31.9962 34.6077L31.9925 29.3513" stroke="white" stroke-width="0.749176" stroke-linecap="round"/>
</g>
<defs>
<filter id="filter0_d_13216_4712" x="6.5943" y="17.8633" width="49.4442" height="44.5752" filterUnits="userSpaceOnUse" color-interpolation-filters="sRGB">
<feFlood flood-opacity="0" result="BackgroundImageFix"/>
<feColorMatrix in="SourceAlpha" type="matrix" values="0 0 0 0 0 0 0 0 0 0 0 0 0 0 0 0 0 0 127 0" result="hardAlpha"/>
<feOffset dy="2.12267"/>
<feGaussianBlur stdDeviation="0.249725"/>
<feComposite in2="hardAlpha" operator="out"/>
<feColorMatrix type="matrix" values="0 0 0 0 0 0 0 0 0 0 0 0 0 0 0 0 0 0 0.25 0"/>
<feBlend mode="normal" in2="BackgroundImageFix" result="effect1_dropShadow_13216_4712"/>
<feBlend mode="normal" in="SourceGraphic" in2="effect1_dropShadow_13216_4712" result="shape"/>
</filter>
<filter id="filter1_d_13216_4712" x="44.3361" y="7.125" width="6.12486" height="6.62822" filterUnits="userSpaceOnUse" color-interpolation-filters="sRGB">
<feFlood flood-opacity="0" result="BackgroundImageFix"/>
<feColorMatrix in="SourceAlpha" type="matrix" values="0 0 0 0 0 0 0 0 0 0 0 0 0 0 0 0 0 0 127 0" result="hardAlpha"/>
<feOffset dx="-0.124863" dy="0.624313"/>
<feComposite in2="hardAlpha" operator="out"/>
<feColorMatrix type="matrix" values="0 0 0 0 0 0 0 0 0 0 0 0 0 0 0 0 0 0 0.25 0"/>
<feBlend mode="normal" in2="BackgroundImageFix" result="effect1_dropShadow_13216_4712"/>
<feBlend mode="normal" in="SourceGraphic" in2="effect1_dropShadow_13216_4712" result="shape"/>
</filter>
<filter id="filter2_d_13216_4712" x="12.0001" y="7.125" width="6.12486" height="6.62822" filterUnits="userSpaceOnUse" color-interpolation-filters="sRGB">
<feFlood flood-opacity="0" result="BackgroundImageFix"/>
<feColorMatrix in="SourceAlpha" type="matrix" values="0 0 0 0 0 0 0 0 0 0 0 0 0 0 0 0 0 0 127 0" result="hardAlpha"/>
<feOffset dx="-0.124863" dy="0.624313"/>
<feComposite in2="hardAlpha" operator="out"/>
<feColorMatrix type="matrix" values="0 0 0 0 0 0 0 0 0 0 0 0 0 0 0 0 0 0 0.25 0"/>
<feBlend mode="normal" in2="BackgroundImageFix" result="effect1_dropShadow_13216_4712"/>
<feBlend mode="normal" in="SourceGraphic" in2="effect1_dropShadow_13216_4712" result="shape"/>
</filter>
<filter id="filter3_d_13216_4712" x="28.8673" y="28.9766" width="6.12486" height="6.62822" filterUnits="userSpaceOnUse" color-interpolation-filters="sRGB">
<feFlood flood-opacity="0" result="BackgroundImageFix"/>
<feColorMatrix in="SourceAlpha" type="matrix" values="0 0 0 0 0 0 0 0 0 0 0 0 0 0 0 0 0 0 127 0" result="hardAlpha"/>
<feOffset dx="-0.124863" dy="0.624313"/>
<feComposite in2="hardAlpha" operator="out"/>
<feColorMatrix type="matrix" values="0 0 0 0 0 0 0 0 0 0 0 0 0 0 0 0 0 0 0.25 0"/>
<feBlend mode="normal" in2="BackgroundImageFix" result="effect1_dropShadow_13216_4712"/>
<feBlend mode="normal" in="SourceGraphic" in2="effect1_dropShadow_13216_4712" result="shape"/>
</filter>
<linearGradient id="paint0_linear_13216_4712" x1="32.7639" y1="4.83203" x2="32.7639" y2="60.7705" gradientUnits="userSpaceOnUse">
<stop/>
<stop offset="1" stop-color="white"/>
</linearGradient>
<linearGradient id="paint1_linear_13216_4712" x1="32.2793" y1="17.3753" x2="32.2793" y2="59.8114" gradientUnits="userSpaceOnUse">
<stop stop-color="#FF0707"/>
<stop offset="0.105" stop-color="#FF8800"/>
<stop offset="0.21" stop-color="#FFE100"/>
<stop offset="0.325" stop-color="#6FFF00"/>
<stop offset="0.44" stop-color="#00FFCC"/>
<stop offset="0.575" stop-color="#0051FF"/>
<stop offset="0.72" stop-color="#9C1FC1"/>
<stop offset="0.865" stop-color="#FF0099"/>
<stop offset="1" stop-color="#FF0004"/>
</linearGradient>
</defs>
</svg>
