<svg width="293" height="52" viewBox="0 0 293 52" fill="none" xmlns="http://www.w3.org/2000/svg">
<circle cx="71.8546" cy="12.0812" r="12.0812" fill="#FBBECA"/>
<circle cx="71.8546" cy="12.0812" r="11.4453" stroke="black" stroke-opacity="0.4" stroke-width="1.2717"/>
<ellipse cx="101.74" cy="12.0812" rx="12.2083" ry="12.0812" fill="#FDDFE5"/>
<path d="M113.312 12.0812C113.312 18.396 108.137 23.5265 101.74 23.5265C95.342 23.5265 90.1671 18.396 90.1671 12.0812C90.1671 5.76635 95.342 0.635851 101.74 0.635851C108.137 0.635851 113.312 5.76635 113.312 12.0812Z" stroke="black" stroke-opacity="0.4" stroke-width="1.2717"/>
<ellipse cx="41.9661" cy="12.0812" rx="12.2083" ry="12.0812" fill="#FDDFE5"/>
<path d="M53.5386 12.0812C53.5386 18.396 48.3637 23.5265 41.9661 23.5265C35.5685 23.5265 30.3937 18.396 30.3937 12.0812C30.3937 5.76635 35.5685 0.635851 41.9661 0.635851C48.3637 0.635851 53.5386 5.76635 53.5386 12.0812Z" stroke="black" stroke-opacity="0.4" stroke-width="1.2717"/>
<circle cx="131.62" cy="12.0812" r="12.0812" fill="#E0EBF5"/>
<circle cx="131.62" cy="12.0812" r="11.4453" stroke="black" stroke-opacity="0.4" stroke-width="1.2717"/>
<circle cx="12.0812" cy="12.0812" r="12.0812" fill="#E0EBF5"/>
<circle cx="12.0812" cy="12.0812" r="11.4453" stroke="black" stroke-opacity="0.4" stroke-width="1.2717"/>
<circle cx="161.378" cy="12.0812" r="12.0812" fill="#A6CFE8"/>
<circle cx="161.378" cy="12.0812" r="11.4453" stroke="black" stroke-opacity="0.4" stroke-width="1.2717"/>
<circle cx="280.917" cy="12.0812" r="12.0812" fill="#A6CFE8"/>
<circle cx="280.917" cy="12.0812" r="11.4453" stroke="black" stroke-opacity="0.4" stroke-width="1.2717"/>
<ellipse cx="191.263" cy="12.0812" rx="12.2083" ry="12.0812" fill="#85E7F4"/>
<path d="M202.836 12.0812C202.836 18.396 197.661 23.5265 191.263 23.5265C184.865 23.5265 179.691 18.396 179.691 12.0812C179.691 5.76635 184.865 0.635851 191.263 0.635851C197.661 0.635851 202.836 5.76635 202.836 12.0812Z" stroke="black" stroke-opacity="0.4" stroke-width="1.2717"/>
<ellipse cx="251.036" cy="12.0812" rx="12.2083" ry="12.0812" fill="#85E7F4"/>
<path d="M262.609 12.0812C262.609 18.396 257.434 23.5265 251.036 23.5265C244.639 23.5265 239.464 18.396 239.464 12.0812C239.464 5.76635 244.639 0.635851 251.036 0.635851C257.434 0.635851 262.609 5.76635 262.609 12.0812Z" stroke="black" stroke-opacity="0.4" stroke-width="1.2717"/>
<circle cx="221.151" cy="12.0812" r="12.0812" fill="#69FDFF"/>
<circle cx="221.151" cy="12.0812" r="11.4453" stroke="black" stroke-opacity="0.4" stroke-width="1.2717"/>
<circle cx="71.8546" cy="39.0421" r="12.0812" fill="#564E7A"/>
<circle cx="71.8546" cy="39.0421" r="11.4453" stroke="black" stroke-opacity="0.4" stroke-width="1.2717"/>
<ellipse cx="101.74" cy="39.0421" rx="12.2083" ry="12.0812" fill="#564E7A"/>
<path d="M113.312 39.0421C113.312 45.3569 108.137 50.4874 101.74 50.4874C95.342 50.4874 90.1671 45.3569 90.1671 39.0421C90.1671 32.7273 95.342 27.5968 101.74 27.5968C108.137 27.5968 113.312 32.7273 113.312 39.0421Z" stroke="black" stroke-opacity="0.4" stroke-width="1.2717"/>
<ellipse cx="41.9661" cy="39.0421" rx="12.2083" ry="12.0812" fill="#564E7A"/>
<path d="M53.5386 39.0421C53.5386 45.3569 48.3637 50.4874 41.9661 50.4874C35.5685 50.4874 30.3937 45.3569 30.3937 39.0421C30.3937 32.7273 35.5685 27.5968 41.9661 27.5968C48.3637 27.5968 53.5386 32.7273 53.5386 39.0421Z" stroke="black" stroke-opacity="0.4" stroke-width="1.2717"/>
<circle cx="131.62" cy="39.0421" r="12.0812" fill="#A195D8"/>
<circle cx="131.62" cy="39.0421" r="11.4453" stroke="black" stroke-opacity="0.4" stroke-width="1.2717"/>
<circle cx="12.0812" cy="39.0421" r="12.0812" fill="#A195D8"/>
<circle cx="12.0812" cy="39.0421" r="11.4453" stroke="black" stroke-opacity="0.4" stroke-width="1.2717"/>
<circle cx="161.378" cy="39.0421" r="12.0812" fill="#CBC3EC"/>
<circle cx="161.378" cy="39.0421" r="11.4453" stroke="black" stroke-opacity="0.4" stroke-width="1.2717"/>
<circle cx="280.917" cy="39.0421" r="12.0812" fill="#CBC3EC"/>
<circle cx="280.917" cy="39.0421" r="11.4453" stroke="black" stroke-opacity="0.4" stroke-width="1.2717"/>
<ellipse cx="191.263" cy="39.0421" rx="12.2083" ry="12.0812" fill="#C3D7EC"/>
<path d="M202.836 39.0421C202.836 45.3569 197.661 50.4874 191.263 50.4874C184.865 50.4874 179.691 45.3569 179.691 39.0421C179.691 32.7273 184.865 27.5968 191.263 27.5968C197.661 27.5968 202.836 32.7273 202.836 39.0421Z" stroke="black" stroke-opacity="0.4" stroke-width="1.2717"/>
<ellipse cx="251.036" cy="39.0421" rx="12.2083" ry="12.0812" fill="#C3D7EC"/>
<path d="M262.609 39.0421C262.609 45.3569 257.434 50.4874 251.036 50.4874C244.639 50.4874 239.464 45.3569 239.464 39.0421C239.464 32.7273 244.639 27.5968 251.036 27.5968C257.434 27.5968 262.609 32.7273 262.609 39.0421Z" stroke="black" stroke-opacity="0.4" stroke-width="1.2717"/>
<circle cx="221.151" cy="39.0421" r="12.0812" fill="#C3D7EC"/>
<circle cx="221.151" cy="39.0421" r="11.4453" stroke="black" stroke-opacity="0.4" stroke-width="1.2717"/>
</svg>
