<svg width="40" height="40" viewBox="0 0 40 40" fill="none" xmlns="http://www.w3.org/2000/svg">
<path d="M19.987 18.9863C18.477 16.0513 14.367 10.5796 10.5453 7.88294C6.88365 5.2996 5.48865 5.7446 4.57365 6.16127C3.51365 6.63627 3.32031 8.2646 3.32031 9.2196C3.32031 10.1779 3.84531 17.0679 4.18698 18.2196C5.32031 22.0196 9.34365 23.3029 13.0536 22.8913C7.62031 23.6963 2.79198 25.6746 9.12031 32.7213C16.0836 39.9296 18.6636 31.1763 19.987 26.7379C21.3103 31.1763 22.8336 39.6146 30.727 32.7213C36.6536 26.7379 32.3553 23.6963 26.922 22.8913C30.6303 23.3029 34.6553 22.0196 35.787 18.2196C36.1286 17.0696 36.6536 10.1779 36.6536 9.22127C36.6536 8.26294 36.4603 6.63794 35.4003 6.15794C34.4853 5.7446 33.0903 5.29627 29.4286 7.8796C25.607 10.5813 21.4953 16.0529 19.987 18.9863Z" fill="#1F2833"/>
</svg>
