<svg width="24" height="24" viewBox="0 0 24 24" fill="none" xmlns="http://www.w3.org/2000/svg">
<g clip-path="url(#clip0_16078_3677)">
<path d="M23.63 4.66536C23.168 3.87136 22.318 3.33203 21.3333 3.33203H12V4.66536H23.63ZM0 16.6654H24V17.9987H0V16.6654ZM12 11.332H24V12.6654H12V11.332ZM12 8.66536H24V9.9987H12V8.66536ZM0 13.9987H24V15.332H0V13.9987ZM2.66667 20.6654H21.3333C22.318 20.6654 23.168 20.126 23.63 19.332H0.37C0.832 20.126 1.682 20.6654 2.66667 20.6654ZM12 5.9987H24V7.33203H12V5.9987Z" fill="#B22334"/>
<path d="M0.0453333 18.454C0.0564444 18.5162 0.0695556 18.5777 0.0846667 18.6386C0.102444 18.7053 0.122889 18.7711 0.146 18.836C0.205333 19.0086 0.277333 19.1753 0.368 19.3313L0.37 19.3346H23.63L23.6313 19.332C23.7217 19.1752 23.7958 19.0097 23.8527 18.838C23.8959 18.7127 23.9298 18.5843 23.954 18.454C23.9813 18.3073 24 18.1566 24 18.0013H0C0 18.1566 0.0186667 18.3066 0.0453333 18.454ZM0 15.3346H24V16.668H0V15.3346ZM0 12.668V14.0013H24V12.668H12H0ZM12 10.0013H24V11.3346H12V10.0013ZM12 7.33464H24V8.66797H12V7.33464ZM0.0853333 5.36397C0.102 5.29597 0.125333 5.2313 0.146667 5.16597C0.123664 5.23115 0.103204 5.2972 0.0853333 5.36397ZM12 6.0013H24C24 5.84597 23.9813 5.6953 23.954 5.54797C23.9307 5.41737 23.8966 5.28893 23.852 5.16397C23.7951 4.99151 23.7207 4.82531 23.63 4.66797H12V6.0013Z" fill="#EEEEEE"/>
<path d="M12 3.33203H2.66667C1.95942 3.33203 1.28115 3.61298 0.781049 4.11308C0.280952 4.61318 0 5.29145 0 5.9987L0 12.6654H12V3.33203Z" fill="#3C3B6E"/>
<path d="M1.33594 5.15197L1.74794 5.4513L1.5906 5.93464L2.00194 5.63597L2.41394 5.93464L2.2566 5.4513L2.6686 5.15197H2.15927L2.00194 4.66797L1.84527 5.15197H1.33594ZM2.66927 6.4853L3.08127 6.78464L2.92394 7.26797L3.33527 6.9693L3.74727 7.26797L3.58994 6.78464L4.00194 6.4853H3.4926L3.33527 6.0013L3.1786 6.4853H2.66927ZM5.33594 6.4853L5.74794 6.78464L5.5906 7.26797L6.00194 6.9693L6.41394 7.26797L6.2566 6.78464L6.6686 6.4853H6.15927L6.00194 6.0013L5.84527 6.4853H5.33594ZM8.0026 6.4853L8.4146 6.78464L8.25727 7.26797L8.6686 6.9693L9.0806 7.26797L8.92327 6.78464L9.33527 6.4853H8.82594L8.6686 6.0013L8.51194 6.4853H8.0026ZM2.66927 9.15197L3.08127 9.4513L2.92394 9.93464L3.33527 9.63597L3.74727 9.93464L3.58994 9.4513L4.00194 9.15197H3.4926L3.33527 8.66797L3.1786 9.15197H2.66927ZM5.33594 9.15197L5.74794 9.4513L5.5906 9.93464L6.00194 9.63597L6.41394 9.93464L6.2566 9.4513L6.6686 9.15197H6.15927L6.00194 8.66797L5.84527 9.15197H5.33594ZM8.0026 9.15197L8.4146 9.4513L8.25727 9.93464L8.6686 9.63597L9.0806 9.93464L8.92327 9.4513L9.33527 9.15197H8.82594L8.6686 8.66797L8.51194 9.15197H8.0026ZM4.0026 5.15197L4.4146 5.4513L4.25727 5.93464L4.6686 5.63597L5.0806 5.93464L4.92327 5.4513L5.33527 5.15197H4.82594L4.6686 4.66797L4.51194 5.15197H4.0026ZM6.66927 5.15197L7.08127 5.4513L6.92394 5.93464L7.33527 5.63597L7.74727 5.93464L7.58994 5.4513L8.00194 5.15197H7.4926L7.33527 4.66797L7.1786 5.15197H6.66927ZM9.33594 5.15197L9.74794 5.4513L9.5906 5.93464L10.0019 5.63597L10.4139 5.93464L10.2566 5.4513L10.6686 5.15197H10.1593L10.0019 4.66797L9.84527 5.15197H9.33594ZM1.33594 7.81864L1.74794 8.11797L1.5906 8.6013L2.00194 8.30264L2.41394 8.6013L2.2566 8.11797L2.6686 7.81864H2.15927L2.00194 7.33464L1.84527 7.81864H1.33594ZM4.25727 8.6013L4.6686 8.30264L5.0806 8.6013L4.92327 8.11797L5.33527 7.81864H4.82594L4.6686 7.33464L4.51194 7.81864H4.0026L4.4146 8.11797L4.25727 8.6013ZM6.66927 7.81864L7.08127 8.11797L6.92394 8.6013L7.33527 8.30264L7.74727 8.6013L7.58994 8.11797L8.00194 7.81864H7.4926L7.33527 7.33464L7.1786 7.81864H6.66927ZM9.33594 7.81864L9.74794 8.11797L9.5906 8.6013L10.0019 8.30264L10.4139 8.6013L10.2566 8.11797L10.6686 7.81864H10.1593L10.0019 7.33464L9.84527 7.81864H9.33594ZM1.33594 10.4853L1.74794 10.7846L1.5906 11.268L2.00194 10.9693L2.41394 11.268L2.2566 10.7846L2.6686 10.4853H2.15927L2.00194 10.0013L1.84527 10.4853H1.33594ZM4.25727 11.268L4.6686 10.9693L5.0806 11.268L4.92327 10.7846L5.33527 10.4853H4.82594L4.6686 10.0013L4.51194 10.4853H4.0026L4.4146 10.7846L4.25727 11.268ZM6.66927 10.4853L7.08127 10.7846L6.92394 11.268L7.33527 10.9693L7.74727 11.268L7.58994 10.7846L8.00194 10.4853H7.4926L7.33527 10.0013L7.1786 10.4853H6.66927ZM9.33594 10.4853L9.74794 10.7846L9.5906 11.268L10.0019 10.9693L10.4139 11.268L10.2566 10.7846L10.6686 10.4853H10.1593L10.0019 10.0013L9.84527 10.4853H9.33594Z" fill="white"/>
</g>
<defs>
<clipPath id="clip0_16078_3677">
<rect width="24" height="24" fill="white"/>
</clipPath>
</defs>
</svg>
