<svg width="24" height="24" viewBox="0 0 24 24" fill="none" xmlns="http://www.w3.org/2000/svg">
<g clip-path="url(#clip0_16078_3682)">
<path d="M0.90625 19.9913C1.38946 20.4242 2.01483 20.6645 2.66358 20.6667H21.3303C22.0375 20.6667 22.7158 20.3857 23.2159 19.8856C23.716 19.3855 23.9969 18.7072 23.9969 18V15H7.62492L0.90625 19.9913Z" fill="#00ABC9"/>
<path d="M11.6637 12L7.625 15H23.997V9H7.625L11.6637 12Z" fill="#FAE042"/>
<path d="M21.3303 3.33203H2.66358C1.98692 3.33203 1.37625 3.59203 0.90625 4.00736L7.62492 8.9987H23.9969V5.9987C23.9969 5.29145 23.716 4.61318 23.2159 4.11308C22.7158 3.61298 22.0375 3.33203 21.3303 3.33203Z" fill="#00ABC9"/>
<path d="M11.6667 11.9991L7.628 8.99915L0.909333 4.00781C0.624489 4.25566 0.395974 4.56159 0.239133 4.90506C0.0822919 5.24852 0.000755792 5.62157 0 5.99915L0 17.9991C0 18.7951 0.356 19.5018 0.909333 19.9905L7.628 14.9991L11.6667 11.9991Z" fill="#141414"/>
</g>
<defs>
<clipPath id="clip0_16078_3682">
<rect width="24" height="24" fill="white"/>
</clipPath>
</defs>
</svg>
