<svg width="24" height="24" viewBox="0 0 24 24" fill="none" xmlns="http://www.w3.org/2000/svg">
<g clip-path="url(#clip0_16076_3857)">
<path d="M21.3334 3.33203H2.66673C2.0217 3.33168 1.39864 3.56631 0.914062 3.99203L4.6154 6.66537H24.0001V5.9987C24.0001 5.29145 23.7191 4.61318 23.219 4.11308C22.7189 3.61298 22.0406 3.33203 21.3334 3.33203Z" fill="#EA0B19"/>
<path d="M9.23252 10.0013H24.0019V6.66797H4.61719L9.23252 10.0013Z" fill="#EEEEEE"/>
<path d="M11.9959 12L9.22656 14H23.9959V10H9.22656L11.9959 12Z" fill="#EA0B19"/>
<path d="M4.61719 17.3333H24.0019V14H9.23252L4.61719 17.3333Z" fill="#EEEEEE"/>
<path d="M0.914062 20.0054C1.38273 20.4154 1.99473 20.6654 2.66673 20.6654H21.3334C22.0406 20.6654 22.7189 20.3844 23.219 19.8843C23.7191 19.3842 24.0001 18.7059 24.0001 17.9987V17.332H4.6154L0.914062 20.0054Z" fill="#EA0B19"/>
<path d="M9.23067 14.0028L12 12.0028L9.23067 10.0028L4.61533 6.66943L0.914 3.99609C0.627369 4.24605 0.39752 4.55443 0.239878 4.90053C0.082235 5.24663 0.000446194 5.62245 0 6.00276L0 18.0028C0 18.8034 0.354667 19.5201 0.914 20.0094L4.61533 17.3361L9.23067 14.0028Z" fill="#0F55EC"/>
<path d="M5.458 12.559L7 11.4423H5.094L4.502 9.625L3.90867 11.4423H2L3.54333 12.5603L2.95 14.3757L4.5 13.253L6.05 14.3757L5.458 12.559Z" fill="white"/>
</g>
<defs>
<clipPath id="clip0_16076_3857">
<rect width="24" height="24" fill="white"/>
</clipPath>
</defs>
</svg>
