<svg width="24" height="24" viewBox="0 0 24 24" fill="none" xmlns="http://www.w3.org/2000/svg">
<g clip-path="url(#clip0_16078_3687)">
<path d="M2.66667 3.33203C1.95942 3.33203 1.28115 3.61298 0.781049 4.11308C0.280952 4.61318 0 5.29145 0 5.9987L0 17.9987C0 18.7059 0.280952 19.3842 0.781049 19.8843C1.28115 20.3844 1.95942 20.6654 2.66667 20.6654H6.66667V3.33203H2.66667ZM21.3333 3.33203H17.3333V20.6654H21.3333C22.0406 20.6654 22.7189 20.3844 23.219 19.8843C23.719 19.3842 24 18.7059 24 17.9987V5.9987C24 5.29145 23.719 4.61318 23.219 4.11308C22.7189 3.61298 22.0406 3.33203 21.3333 3.33203Z" fill="#D52B1E"/>
<path d="M6.66406 3.33203H17.3307V20.6654H6.66406V3.33203Z" fill="#EEEEEE"/>
<path d="M12.4111 14.7437C13.2097 14.8363 13.9257 14.9197 14.7237 15.011L14.5204 14.343C14.5054 14.2855 14.5075 14.2249 14.5263 14.1686C14.5451 14.1123 14.5799 14.0626 14.6264 14.0257L16.9457 12.1363L16.4657 11.9103C16.2544 11.835 16.3124 11.7157 16.3891 11.429L16.7431 10.1383L15.3957 10.423C15.2644 10.443 15.1771 10.3597 15.1571 10.2797L14.9831 9.67233L13.9177 10.8683C13.7664 11.0603 13.4597 11.0603 13.5551 10.6177L14.0104 8.195L13.3991 8.51167C13.2277 8.60767 13.0564 8.62367 12.9611 8.45233L12.1177 6.875L11.2744 8.45233C11.1784 8.62367 11.0071 8.60767 10.8357 8.51167L10.2251 8.195L10.6804 10.6177C10.7764 11.0603 10.4691 11.0603 10.3177 10.8683L9.2524 9.673L9.07906 10.2803C9.05906 10.3603 8.97106 10.4437 8.83973 10.4237L7.4924 10.139L7.8464 11.4297C7.92173 11.7163 7.9804 11.8357 7.76906 11.911L7.28906 12.137L9.6084 14.0263C9.7004 14.0977 9.74706 14.2263 9.71373 14.3437L9.5104 15.0117L11.8237 14.7443C11.8944 14.7443 11.9411 14.7837 11.9404 14.865L11.7977 17.3343H12.4351L12.2931 14.865C12.2944 14.783 12.3404 14.7437 12.4111 14.7437Z" fill="#D52B1E"/>
</g>
<defs>
<clipPath id="clip0_16078_3687">
<rect width="24" height="24" fill="white"/>
</clipPath>
</defs>
</svg>
