<svg width="331" height="80" viewBox="0 0 331 80" fill="none" xmlns="http://www.w3.org/2000/svg">
<rect x="4.27124" y="8.54199" width="322.458" height="64.0645" fill="white"/>
<rect x="2.1355" y="10.6777" width="2.13548" height="2.13548" fill="black"/>
<rect x="6.40625" y="6.40625" width="2.13548" height="2.13548" fill="black"/>
<rect x="326.729" y="70.4717" width="2.13548" height="2.13548" transform="rotate(180 326.729 70.4717)" fill="black"/>
<rect x="326.729" y="72.6064" width="2.13548" height="2.13548" transform="rotate(180 326.729 72.6064)" fill="black"/>
<rect x="324.594" y="72.6064" width="2.13548" height="2.13548" transform="rotate(180 324.594 72.6064)" fill="black"/>
<rect x="209.277" y="72.6064" width="2.13548" height="2.13548" transform="rotate(180 209.277 72.6064)" fill="black"/>
<rect x="254.123" y="72.6064" width="2.13548" height="2.13548" transform="rotate(180 254.123 72.6064)" fill="black"/>
<rect x="256.258" y="72.6064" width="2.13548" height="2.13548" transform="rotate(180 256.258 72.6064)" fill="black"/>
<rect x="290.426" y="72.6064" width="2.13548" height="2.13548" transform="rotate(180 290.426 72.6064)" fill="black"/>
<rect x="288.29" y="72.6064" width="2.13548" height="2.13548" transform="rotate(180 288.29 72.6064)" fill="black"/>
<rect x="4.27124" y="10.6777" width="2.13548" height="2.13548" fill="black"/>
<rect width="2.13548" height="2.13548" transform="matrix(1 0 0 -1 4.27124 70.4717)" fill="black"/>
<rect x="207.142" y="72.6064" width="2.13548" height="2.13548" transform="rotate(180 207.142 72.6064)" fill="black"/>
<rect x="318.187" y="72.6064" width="2.13548" height="2.13548" transform="rotate(180 318.187 72.6064)" fill="black"/>
<rect x="318.187" y="68.335" width="2.13548" height="2.13548" transform="rotate(180 318.187 68.335)" fill="black"/>
<rect x="316.052" y="68.335" width="2.13548" height="2.13548" transform="rotate(180 316.052 68.335)" fill="black"/>
<rect width="2.13548" height="2.13548" transform="matrix(-1 0 0 1 326.729 10.6777)" fill="black"/>
<rect width="2.13548" height="2.13548" transform="matrix(-1 0 0 1 326.729 8.54199)" fill="black"/>
<rect width="2.13548" height="2.13548" transform="matrix(-1 0 0 1 324.594 8.54199)" fill="black"/>
<rect x="6.40625" y="8.54199" width="2.13548" height="2.13548" fill="black"/>
<rect width="2.13548" height="2.13548" transform="matrix(1 0 0 -1 6.40625 72.6064)" fill="black"/>
<rect x="4.27124" y="8.54199" width="2.13548" height="2.13548" fill="black"/>
<rect width="2.13548" height="2.13548" transform="matrix(1 0 0 -1 4.27124 72.6064)" fill="black"/>
<rect x="322.458" y="14.9482" width="2.13548" height="51.2516" fill="black"/>
<rect width="2.13548" height="51.2516" transform="matrix(-1 0 0 1 8.54175 14.9482)" fill="black"/>
<rect x="320.322" y="66.1992" width="2.13548" height="2.13548" fill="black"/>
<rect x="320.322" y="12.8125" width="2.13548" height="2.13548" fill="black"/>
<rect width="2.13548" height="2.13548" transform="matrix(-1 0 0 1 10.6772 66.1992)" fill="black"/>
<rect width="2.13548" height="2.13548" transform="matrix(-1 0 0 1 10.6772 12.8125)" fill="black"/>
<rect width="2.13548" height="2.13548" transform="matrix(-1 0 0 1 21.355 6.40625)" fill="white"/>
<rect width="2.13548" height="2.13548" transform="matrix(-1 0 0 1 57.6582 6.40625)" fill="white"/>
<rect width="2.13548" height="2.13548" transform="matrix(-1 0 0 1 55.5227 4.27051)" fill="white"/>
<rect width="2.13548" height="2.13548" transform="matrix(-1 0 0 1 96.0967 4.27051)" fill="white"/>
<rect width="2.13548" height="2.13548" transform="matrix(-1 0 0 1 93.9614 72.6064)" fill="white"/>
<rect width="2.13548" height="2.13548" transform="matrix(-1 0 0 1 91.8257 6.40625)" fill="white"/>
<rect width="2.13548" height="2.13548" transform="matrix(-1 0 0 1 79.0129 6.40625)" fill="white"/>
<rect width="2.13548" height="2.13548" transform="matrix(-1 0 0 1 83.2837 4.27051)" fill="white"/>
<rect width="2.13548" height="2.13548" transform="matrix(-1 0 0 1 38.4387 6.40625)" fill="white"/>
<rect width="2.13548" height="2.13548" transform="matrix(-1 0 0 1 40.574 4.27051)" fill="white"/>
<rect width="2.13548" height="2.13548" transform="matrix(-1 0 0 1 38.4387 2.13574)" fill="white"/>
<rect width="2.13548" height="2.13548" transform="matrix(-1 0 0 1 98.2322 6.40625)" fill="white"/>
<rect width="2.13548" height="2.13548" transform="matrix(-1 0 0 1 96.0967 74.7412)" fill="white"/>
<rect width="2.13548" height="2.13548" transform="matrix(-1 0 0 1 96.0967 76.8779)" fill="white"/>
<rect width="2.13548" height="2.13548" transform="matrix(-1 0 0 1 81.1484 74.7412)" fill="white"/>
<rect width="2.13548" height="2.13548" transform="matrix(-1 0 0 1 160.161 74.7412)" fill="white"/>
<rect width="2.13548" height="2.13548" transform="matrix(-1 0 0 1 140.942 72.6064)" fill="white"/>
<rect width="2.13548" height="2.13548" transform="matrix(-1 0 0 1 138.806 74.7412)" fill="white"/>
<rect width="2.13548" height="2.13548" transform="matrix(-1 0 0 1 143.077 76.8779)" fill="white"/>
<rect width="2.13548" height="2.13548" transform="matrix(-1 0 0 1 125.993 74.7412)" fill="white"/>
<rect width="2.13548" height="2.13548" transform="matrix(-1 0 0 1 123.858 72.6064)" fill="white"/>
<rect width="2.13548" height="2.13548" transform="matrix(-1 0 0 1 128.129 72.6064)" fill="white"/>
<rect width="2.13548" height="2.13548" transform="matrix(-1 0 0 1 132.4 76.8779)" fill="white"/>
<rect width="2.13548" height="2.13548" transform="matrix(-1 0 0 1 111.045 72.6064)" fill="white"/>
<rect width="2.13548" height="2.13548" transform="matrix(-1 0 0 1 104.638 72.6064)" fill="white"/>
<rect width="2.13548" height="2.13548" transform="matrix(-1 0 0 1 106.774 74.7412)" fill="white"/>
<rect width="2.13548" height="2.13548" transform="matrix(-1 0 0 1 111.045 76.8779)" fill="white"/>
<rect width="2.13548" height="2.13548" transform="matrix(-1 0 0 1 162.297 72.6064)" fill="white"/>
<rect width="2.13548" height="2.13548" transform="matrix(-1 0 0 1 164.432 72.6064)" fill="white"/>
<rect width="2.13548" height="2.13548" transform="matrix(-1 0 0 1 177.245 72.6064)" fill="white"/>
<rect width="2.13548" height="2.13548" transform="matrix(-1 0 0 1 190.058 74.7412)" fill="white"/>
<rect width="2.13548" height="2.13548" transform="matrix(-1 0 0 1 194.329 72.6064)" fill="white"/>
<rect width="2.13548" height="2.13548" transform="matrix(-1 0 0 1 200.735 72.6064)" fill="white"/>
<rect width="2.13548" height="2.13548" transform="matrix(-1 0 0 1 202.871 74.7412)" fill="white"/>
<rect width="2.13548" height="2.13548" transform="matrix(-1 0 0 1 209.277 72.6064)" fill="white"/>
<rect width="2.13548" height="2.13548" transform="matrix(-1 0 0 1 318.187 74.7412)" fill="white"/>
<rect width="2.13548" height="2.13548" transform="matrix(-1 0 0 1 322.458 72.6064)" fill="white"/>
<rect width="2.13548" height="2.13548" transform="matrix(-1 0 0 1 324.594 74.7412)" fill="white"/>
<rect width="2.13548" height="2.13548" transform="matrix(-1 0 0 1 328.865 70.4717)" fill="white"/>
<rect width="2.13548" height="2.13548" transform="matrix(-1 0 0 1 301.103 74.7412)" fill="white"/>
<rect width="2.13548" height="2.13548" transform="matrix(-1 0 0 1 298.968 72.6064)" fill="white"/>
<rect width="2.13548" height="2.13548" transform="matrix(-1 0 0 1 286.155 72.6064)" fill="white"/>
<rect width="2.13548" height="2.13548" transform="matrix(-1 0 0 1 284.019 74.7412)" fill="white"/>
<rect width="2.13548" height="2.13548" transform="matrix(-1 0 0 1 281.884 76.8779)" fill="white"/>
<rect width="2.13548" height="2.13548" transform="matrix(-1 0 0 1 256.258 72.6064)" fill="white"/>
<rect width="2.13548" height="2.13548" transform="matrix(-1 0 0 1 258.394 74.7412)" fill="white"/>
<rect width="2.13548" height="2.13548" transform="matrix(-1 0 0 1 271.207 72.6064)" fill="white"/>
<rect width="2.13548" height="2.13548" transform="matrix(-1 0 0 1 256.258 76.8779)" fill="white"/>
<rect width="2.13548" height="2.13548" transform="matrix(-1 0 0 1 234.903 72.6064)" fill="white"/>
<rect width="2.13548" height="2.13548" transform="matrix(-1 0 0 1 237.039 74.7412)" fill="white"/>
<rect width="2.13548" height="2.13548" transform="matrix(-1 0 0 1 222.09 72.6064)" fill="white"/>
<rect width="2.13548" height="2.13548" transform="matrix(-1 0 0 1 245.581 74.7412)" fill="white"/>
<rect width="2.13548" height="2.13548" transform="matrix(-1 0 0 1 328.865 61.9287)" fill="white"/>
<rect width="2.13548" height="2.13548" transform="matrix(-1 0 0 1 328.865 46.9805)" fill="white"/>
<rect width="2.13548" height="2.13548" transform="matrix(-1 0 0 1 328.865 27.7607)" fill="white"/>
<rect width="2.13548" height="2.13548" transform="matrix(-1 0 0 1 331 29.8975)" fill="white"/>
<rect width="2.13548" height="2.13548" transform="matrix(-1 0 0 1 331 40.5742)" fill="white"/>
<rect width="2.13548" height="2.13548" transform="matrix(-1 0 0 1 328.865 38.4385)" fill="white"/>
<rect width="2.13548" height="2.13548" transform="matrix(-1 0 0 1 79.0129 72.6064)" fill="white"/>
<rect width="2.13548" height="2.13548" transform="matrix(-1 0 0 1 68.3352 72.6064)" fill="white"/>
<rect width="2.13548" height="2.13548" transform="matrix(-1 0 0 1 51.2515 74.7412)" fill="white"/>
<rect width="2.13548" height="2.13548" transform="matrix(-1 0 0 1 40.574 72.6064)" fill="white"/>
<rect width="2.13548" height="2.13548" transform="matrix(-1 0 0 1 121.723 6.40625)" fill="white"/>
<rect width="2.13548" height="2.13548" transform="matrix(-1 0 0 1 123.858 4.27051)" fill="white"/>
<rect width="2.13548" height="2.13548" transform="matrix(-1 0 0 1 123.858 2.13574)" fill="white"/>
<rect width="2.13548" height="2.13548" transform="matrix(-1 0 0 1 125.993 0)" fill="white"/>
<rect width="2.13548" height="2.13548" transform="matrix(-1 0 0 1 136.671 6.40625)" fill="white"/>
<rect width="2.13548" height="2.13548" transform="matrix(-1 0 0 1 147.348 4.27051)" fill="white"/>
<rect width="2.13548" height="2.13548" transform="matrix(-1 0 0 1 115.316 2.13574)" fill="white"/>
<rect width="2.13548" height="2.13548" transform="matrix(-1 0 0 1 111.045 4.27051)" fill="white"/>
<rect width="2.13548" height="2.13548" transform="matrix(-1 0 0 1 113.18 6.40625)" fill="white"/>
<rect width="2.13548" height="2.13548" transform="matrix(-1 0 0 1 106.774 2.13574)" fill="white"/>
<rect width="2.13548" height="2.13548" transform="matrix(-1 0 0 1 160.161 6.40625)" fill="white"/>
<rect width="2.13548" height="2.13548" transform="matrix(-1 0 0 1 177.245 6.40625)" fill="white"/>
<rect width="2.13548" height="2.13548" transform="matrix(-1 0 0 1 175.11 4.27051)" fill="white"/>
<rect width="2.13548" height="2.13548" transform="matrix(-1 0 0 1 164.432 4.27051)" fill="white"/>
<rect width="2.13548" height="2.13548" transform="matrix(-1 0 0 1 198.6 4.27051)" fill="white"/>
<rect width="2.13548" height="2.13548" transform="matrix(-1 0 0 1 196.465 6.40625)" fill="white"/>
<rect width="2.13548" height="2.13548" transform="matrix(-1 0 0 1 326.729 8.54199)" fill="white"/>
<rect width="2.13548" height="2.13548" transform="matrix(-1 0 0 1 207.142 4.27051)" fill="white"/>
<rect width="2.13548" height="2.13548" transform="matrix(-1 0 0 1 320.322 6.40625)" fill="white"/>
<rect width="2.13548" height="2.13548" transform="matrix(-1 0 0 1 318.187 4.27051)" fill="white"/>
<rect width="2.13548" height="2.13548" transform="matrix(-1 0 0 1 324.594 4.27051)" fill="white"/>
<rect width="2.13548" height="2.13548" transform="matrix(-1 0 0 1 301.103 4.27051)" fill="white"/>
<rect width="2.13548" height="2.13548" transform="matrix(-1 0 0 1 309.645 6.40625)" fill="white"/>
<rect width="2.13548" height="2.13548" transform="matrix(-1 0 0 1 298.968 6.40625)" fill="white"/>
<rect width="2.13548" height="2.13548" transform="matrix(-1 0 0 1 275.478 6.40625)" fill="white"/>
<rect width="2.13548" height="2.13548" transform="matrix(-1 0 0 1 288.29 6.40625)" fill="white"/>
<rect width="2.13548" height="2.13548" transform="matrix(-1 0 0 1 286.155 4.27051)" fill="white"/>
<rect width="2.13548" height="2.13548" transform="matrix(-1 0 0 1 273.342 6.40625)" fill="white"/>
<rect width="2.13548" height="2.13548" transform="matrix(-1 0 0 1 271.207 4.27051)" fill="white"/>
<rect width="2.13548" height="2.13548" transform="matrix(-1 0 0 1 251.987 6.40625)" fill="white"/>
<rect width="2.13548" height="2.13548" transform="matrix(-1 0 0 1 254.123 4.27051)" fill="white"/>
<rect width="2.13548" height="2.13548" transform="matrix(-1 0 0 1 249.852 2.13574)" fill="white"/>
<rect width="2.13548" height="2.13548" transform="matrix(-1 0 0 1 262.665 6.40625)" fill="white"/>
<rect width="2.13548" height="2.13548" transform="matrix(-1 0 0 1 234.903 6.40625)" fill="white"/>
<rect width="2.13548" height="2.13548" transform="matrix(-1 0 0 1 234.903 4.27051)" fill="white"/>
<rect width="2.13548" height="2.13548" transform="matrix(-1 0 0 1 232.768 2.13574)" fill="white"/>
<rect width="2.13548" height="2.13548" transform="matrix(-1 0 0 1 222.09 6.40625)" fill="white"/>
<rect width="2.13548" height="2.13548" transform="matrix(-1 0 0 1 219.955 6.40625)" fill="white"/>
<rect width="2.13548" height="2.13548" transform="matrix(-1 0 0 1 205.006 4.27051)" fill="white"/>
<rect width="2.13548" height="2.13548" transform="matrix(-1 0 0 1 331 10.6777)" fill="white"/>
<rect width="2.13548" height="2.13548" transform="matrix(-1 0 0 1 19.2195 4.27051)" fill="white"/>
<rect width="2.13548" height="2.13548" transform="matrix(-1 0 0 1 14.9482 6.40625)" fill="white"/>
<rect width="2.13548" height="2.13548" transform="matrix(-1 0 0 1 6.40625 6.40625)" fill="white"/>
<rect width="2.13548" height="2.13548" transform="matrix(-1 0 0 1 4.27124 12.8125)" fill="white"/>
<rect width="2.13548" height="2.13548" transform="matrix(-1 0 0 1 2.1355 21.3545)" fill="white"/>
<rect width="2.13548" height="2.13548" transform="matrix(-1 0 0 1 12.813 2.13574)" fill="white"/>
<rect width="2.13548" height="2.13548" transform="matrix(-1 0 0 1 2.1355 36.3037)" fill="white"/>
<rect width="2.13548" height="2.13548" transform="matrix(-1 0 0 1 4.27124 38.4385)" fill="white"/>
<rect width="2.13548" height="2.13548" transform="matrix(-1 0 0 1 4.27124 32.0322)" fill="white"/>
<rect width="2.13548" height="2.13548" transform="matrix(-1 0 0 1 2.1355 29.8975)" fill="white"/>
<rect width="2.13548" height="2.13548" transform="matrix(-1 0 0 1 2.1355 49.1172)" fill="white"/>
<rect width="2.13548" height="2.13548" transform="matrix(-1 0 0 1 4.27124 57.6582)" fill="white"/>
<rect width="2.13548" height="2.13548" transform="matrix(-1 0 0 1 8.54175 59.793)" fill="white"/>
<rect width="2.13548" height="2.13548" transform="matrix(-1 0 0 1 4.27124 64.0654)" fill="white"/>
<rect width="2.13548" height="2.13548" transform="matrix(-1 0 0 1 2.1355 61.9287)" fill="white"/>
<rect width="2.13548" height="2.13548" transform="matrix(-1 0 0 1 25.6255 72.6064)" fill="white"/>
<rect width="2.13548" height="2.13548" transform="matrix(-1 0 0 1 10.6772 72.6064)" fill="white"/>
<rect width="4.27097" height="2.13548" transform="matrix(-1 0 0 1 4.27124 70.4717)" fill="white"/>
<rect width="2.13548" height="2.13548" transform="matrix(-1 0 0 1 4.27124 25.626)" fill="white"/>
<rect width="2.13548" height="2.13548" transform="matrix(-1 0 0 1 2.1355 14.9482)" fill="white"/>
<rect width="4.27097" height="2.13548" transform="matrix(-1 0 0 1 21.355 8.54199)" fill="black"/>
<rect width="4.27097" height="2.13548" transform="matrix(-1 0 0 1 57.6582 8.54199)" fill="black"/>
<rect width="2.13548" height="2.13548" transform="matrix(-1 0 0 1 96.0967 8.54199)" fill="black"/>
<rect width="6.40645" height="2.13548" transform="matrix(-1 0 0 1 164.432 8.54199)" fill="black"/>
<rect width="2.13548" height="2.13548" transform="matrix(-1 0 0 1 198.6 8.54199)" fill="black"/>
<rect width="2.13548" height="2.13548" transform="matrix(-1 0 0 1 217.82 8.54199)" fill="black"/>
<rect width="2.13548" height="2.13548" transform="matrix(-1 0 0 1 219.955 8.54199)" fill="black"/>
<rect width="2.13548" height="2.13548" transform="matrix(-1 0 0 1 241.31 8.54199)" fill="black"/>
<rect width="2.13548" height="2.13548" transform="matrix(-1 0 0 1 243.445 8.54199)" fill="black"/>
<rect width="2.13548" height="2.13548" transform="matrix(-1 0 0 1 262.665 8.54199)" fill="black"/>
<rect width="2.13548" height="2.13548" transform="matrix(-1 0 0 1 288.29 8.54199)" fill="black"/>
<rect width="2.13548" height="2.13548" transform="matrix(-1 0 0 1 316.052 8.54199)" fill="black"/>
<rect width="2.13548" height="2.13548" transform="matrix(-1 0 0 1 313.916 8.54199)" fill="black"/>
<rect width="2.13548" height="2.13548" transform="matrix(-1 0 0 1 177.245 8.54199)" fill="black"/>
<rect width="2.13548" height="2.13548" transform="matrix(-1 0 0 1 172.974 12.8125)" fill="black"/>
<rect width="2.13548" height="2.13548" transform="matrix(-1 0 0 1 183.652 12.8125)" fill="black"/>
<rect width="2.13548" height="2.13548" transform="matrix(-1 0 0 1 151.619 8.54199)" fill="black"/>
<rect width="4.27097" height="2.13548" transform="matrix(-1 0 0 1 147.348 12.8125)" fill="black"/>
<rect width="2.13548" height="2.13548" transform="matrix(-1 0 0 1 102.503 12.8125)" fill="black"/>
<rect width="2.13548" height="2.13548" transform="matrix(-1 0 0 1 104.638 14.9482)" fill="black"/>
<rect width="2.13548" height="2.13548" transform="matrix(-1 0 0 1 102.503 17.085)" fill="black"/>
<rect width="2.13548" height="2.13548" transform="matrix(-1 0 0 1 123.858 12.8125)" fill="black"/>
<rect width="2.13548" height="2.13548" transform="matrix(-1 0 0 1 125.993 14.9482)" fill="black"/>
<rect width="2.13548" height="2.13548" transform="matrix(-1 0 0 1 134.535 8.54199)" fill="black"/>
<rect width="2.13548" height="2.13548" transform="matrix(-1 0 0 1 72.6064 8.54199)" fill="black"/>
<rect width="2.13548" height="2.13548" transform="matrix(-1 0 0 1 172.974 70.4717)" fill="black"/>
<rect width="2.13548" height="2.13548" transform="matrix(-1 0 0 1 83.2837 12.8125)" fill="black"/>
<rect width="2.13548" height="2.13548" transform="matrix(-1 0 0 1 59.7935 12.8125)" fill="black"/>
<rect width="2.13548" height="2.13548" transform="matrix(-1 0 0 1 55.5227 14.9482)" fill="black"/>
<rect width="2.13548" height="2.13548" transform="matrix(-1 0 0 1 46.9805 12.8125)" fill="black"/>
<rect width="2.13548" height="2.13548" transform="matrix(-1 0 0 1 12.813 51.252)" fill="black"/>
<rect width="2.13548" height="2.13548" transform="matrix(-1 0 0 1 12.813 61.9287)" fill="black"/>
<rect width="2.13548" height="2.13548" transform="matrix(-1 0 0 1 14.9482 57.6582)" fill="black"/>
<rect width="2.13548" height="2.13548" transform="matrix(-1 0 0 1 19.2195 66.1992)" fill="black"/>
<rect width="2.13548" height="2.13548" transform="matrix(-1 0 0 1 21.355 59.793)" fill="black"/>
<rect width="2.13548" height="2.13548" transform="matrix(-1 0 0 1 17.0837 55.5225)" fill="black"/>
<rect width="2.13548" height="2.13548" transform="matrix(-1 0 0 1 36.3032 61.9287)" fill="black"/>
<rect width="2.13548" height="2.13548" transform="matrix(-1 0 0 1 34.1677 66.1992)" fill="black"/>
<rect width="2.13548" height="2.13548" transform="matrix(-1 0 0 1 40.574 64.0654)" fill="black"/>
<rect width="2.13548" height="2.13548" transform="matrix(-1 0 0 1 40.574 59.793)" fill="black"/>
<rect width="2.13548" height="2.13548" transform="matrix(-1 0 0 1 36.3032 57.6582)" fill="black"/>
<rect width="2.13548" height="2.13548" transform="matrix(-1 0 0 1 32.032 57.6582)" fill="black"/>
<rect width="2.13548" height="2.13548" transform="matrix(-1 0 0 1 36.3032 64.0654)" fill="black"/>
<rect width="2.13548" height="2.13548" transform="matrix(-1 0 0 1 46.9805 61.9287)" fill="black"/>
<rect width="2.13548" height="2.13548" transform="matrix(-1 0 0 1 49.1162 66.1992)" fill="black"/>
<rect width="2.13548" height="2.13548" transform="matrix(-1 0 0 1 42.7097 66.1992)" fill="black"/>
<rect width="2.13548" height="2.13548" transform="matrix(-1 0 0 1 51.2515 59.793)" fill="black"/>
<rect width="2.13548" height="2.13548" transform="matrix(-1 0 0 1 64.0645 64.0654)" fill="black"/>
<rect width="2.13548" height="2.13548" transform="matrix(-1 0 0 1 72.6064 61.9287)" fill="black"/>
<rect width="2.13548" height="2.13548" transform="matrix(-1 0 0 1 70.4707 64.0654)" fill="black"/>
<rect width="2.13548" height="2.13548" transform="matrix(-1 0 0 1 76.8772 59.793)" fill="black"/>
<rect width="2.13548" height="2.13548" transform="matrix(-1 0 0 1 87.5547 64.0654)" fill="black"/>
<rect width="2.13548" height="2.13548" transform="matrix(-1 0 0 1 98.2322 61.9287)" fill="black"/>
<rect width="2.13548" height="2.13548" transform="matrix(-1 0 0 1 115.316 61.9287)" fill="black"/>
<rect width="2.13548" height="2.13548" transform="matrix(-1 0 0 1 134.535 61.9287)" fill="black"/>
<rect width="2.13548" height="2.13548" transform="matrix(-1 0 0 1 136.671 61.9287)" fill="black"/>
<rect width="2.13548" height="2.13548" transform="matrix(-1 0 0 1 138.806 64.0654)" fill="black"/>
<rect width="2.13548" height="2.13548" transform="matrix(-1 0 0 1 151.619 61.9287)" fill="black"/>
<rect width="2.13548" height="2.13548" transform="matrix(-1 0 0 1 149.484 64.0654)" fill="black"/>
<rect width="2.13548" height="2.13548" transform="matrix(-1 0 0 1 164.432 64.0654)" fill="black"/>
<rect width="2.13548" height="2.13548" transform="matrix(-1 0 0 1 175.11 64.0654)" fill="black"/>
<rect width="2.13548" height="2.13548" transform="matrix(-1 0 0 1 172.974 61.9287)" fill="black"/>
<rect width="2.13548" height="2.13548" transform="matrix(-1 0 0 1 187.922 66.1992)" fill="black"/>
<rect width="2.13548" height="2.13548" transform="matrix(-1 0 0 1 190.058 64.0654)" fill="black"/>
<rect width="2.13548" height="2.13548" transform="matrix(-1 0 0 1 187.922 61.9287)" fill="black"/>
<rect width="2.13548" height="2.13548" transform="matrix(-1 0 0 1 322.458 61.9287)" fill="black"/>
<rect width="2.13548" height="2.13548" transform="matrix(-1 0 0 1 72.6064 66.1992)" fill="black"/>
<rect width="2.13548" height="2.13548" transform="matrix(-1 0 0 1 74.7419 66.1992)" fill="black"/>
<rect width="2.13548" height="2.13548" transform="matrix(-1 0 0 1 96.0967 64.0654)" fill="black"/>
<rect width="2.13548" height="2.13548" transform="matrix(-1 0 0 1 96.0967 61.9287)" fill="black"/>
<rect width="2.13548" height="2.13548" transform="matrix(-1 0 0 1 100.368 66.1992)" fill="black"/>
<rect width="2.13548" height="2.13548" transform="matrix(-1 0 0 1 108.91 66.1992)" fill="black"/>
<rect width="2.13548" height="2.13548" transform="matrix(-1 0 0 1 106.774 64.0654)" fill="black"/>
<rect width="2.13548" height="2.13548" transform="matrix(-1 0 0 1 106.774 61.9287)" fill="black"/>
<rect width="2.13548" height="2.13548" transform="matrix(-1 0 0 1 125.993 64.0654)" fill="black"/>
<rect width="2.13548" height="2.13548" transform="matrix(-1 0 0 1 143.077 64.0654)" fill="black"/>
<rect width="2.13548" height="2.13548" transform="matrix(-1 0 0 1 27.7612 64.0654)" fill="black"/>
<rect width="2.13548" height="2.13548" transform="matrix(-1 0 0 1 29.8967 66.1992)" fill="black"/>
<rect width="2.13548" height="2.13548" transform="matrix(-1 0 0 1 29.8967 64.0654)" fill="black"/>
<rect width="2.13548" height="2.13548" transform="matrix(-1 0 0 1 23.4902 61.9287)" fill="black"/>
<rect width="2.13548" height="2.13548" transform="matrix(-1 0 0 1 21.355 61.9287)" fill="black"/>
<rect width="2.13548" height="2.13548" transform="matrix(-1 0 0 1 17.0837 64.0654)" fill="black"/>
<rect width="2.13548" height="2.13548" transform="matrix(-1 0 0 1 14.9482 38.4385)" fill="black"/>
<rect width="2.13548" height="2.13548" transform="matrix(-1 0 0 1 17.0837 36.3037)" fill="black"/>
<rect width="2.13548" height="2.13548" transform="matrix(-1 0 0 1 17.0837 42.709)" fill="black"/>
<rect width="2.13548" height="2.13548" transform="matrix(-1 0 0 1 19.2195 36.3037)" fill="black"/>
<rect width="2.13548" height="2.13548" transform="matrix(-1 0 0 1 23.4902 38.4385)" fill="black"/>
<rect width="2.13548" height="2.13548" transform="matrix(-1 0 0 1 21.355 34.168)" fill="black"/>
<rect width="2.13548" height="2.13548" transform="matrix(-1 0 0 1 19.2195 29.8975)" fill="black"/>
<rect width="2.13548" height="2.13548" transform="matrix(-1 0 0 1 19.2195 23.4912)" fill="black"/>
<rect width="2.13548" height="2.13548" transform="matrix(-1 0 0 1 12.813 19.2197)" fill="black"/>
<rect width="2.13548" height="2.13548" transform="matrix(-1 0 0 1 10.6772 21.3545)" fill="black"/>
<rect width="2.13548" height="2.13548" transform="matrix(-1 0 0 1 19.2195 46.9805)" fill="black"/>
<rect width="2.13548" height="2.13548" transform="matrix(-1 0 0 1 17.0837 49.1172)" fill="black"/>
<rect width="2.13548" height="2.13548" transform="matrix(-1 0 0 1 10.6772 36.3037)" fill="black"/>
<rect width="2.13548" height="2.13548" transform="matrix(-1 0 0 1 10.6772 64.0654)" fill="black"/>
<rect width="2.13548" height="2.13548" transform="matrix(-1 0 0 1 10.6772 55.5225)" fill="black"/>
<rect width="2.13548" height="2.13548" transform="matrix(-1 0 0 1 12.813 55.5225)" fill="black"/>
<rect width="2.13548" height="2.13548" transform="matrix(-1 0 0 1 12.813 46.9805)" fill="black"/>
<rect width="2.13548" height="2.13548" transform="matrix(-1 0 0 1 14.9482 44.8447)" fill="black"/>
<rect width="2.13548" height="2.13548" transform="matrix(-1 0 0 1 10.6772 42.709)" fill="black"/>
<rect width="2.13548" height="2.13548" transform="matrix(-1 0 0 1 14.9482 46.9805)" fill="black"/>
<rect width="2.13548" height="2.13548" transform="matrix(-1 0 0 1 14.9482 34.168)" fill="black"/>
<rect width="2.13548" height="2.13548" transform="matrix(-1 0 0 1 14.9482 29.8975)" fill="black"/>
<rect width="2.13548" height="2.13548" transform="matrix(-1 0 0 1 17.0837 27.7607)" fill="black"/>
<rect width="2.13548" height="2.13548" transform="matrix(-1 0 0 1 17.0837 25.626)" fill="black"/>
<rect width="2.13548" height="2.13548" transform="matrix(-1 0 0 1 14.9482 23.4912)" fill="black"/>
<rect width="2.13548" height="2.13548" transform="matrix(-1 0 0 1 12.813 32.0322)" fill="black"/>
<rect width="2.13548" height="2.13548" transform="matrix(-1 0 0 1 12.813 25.626)" fill="black"/>
<rect width="2.13548" height="4.27097" transform="matrix(-1 0 0 1 10.6772 27.7607)" fill="black"/>
<rect width="2.13548" height="2.13548" transform="matrix(-1 0 0 1 19.2195 53.3867)" fill="black"/>
<rect width="2.13548" height="2.13548" transform="matrix(-1 0 0 1 19.2195 57.6582)" fill="black"/>
<rect width="2.13548" height="2.13548" transform="matrix(-1 0 0 1 34.1677 59.793)" fill="black"/>
<rect width="2.13548" height="2.13548" transform="matrix(-1 0 0 1 32.032 61.9287)" fill="black"/>
<rect width="2.13548" height="2.13548" transform="matrix(-1 0 0 1 27.7612 59.793)" fill="black"/>
<rect width="2.13548" height="2.13548" transform="matrix(-1 0 0 1 25.6255 57.6582)" fill="black"/>
<rect width="2.13548" height="2.13548" transform="matrix(-1 0 0 1 23.4902 53.3867)" fill="black"/>
<rect width="2.13548" height="2.13548" transform="matrix(-1 0 0 1 55.5227 64.0654)" fill="black"/>
<rect width="2.13548" height="2.13548" transform="matrix(-1 0 0 1 83.2837 61.9287)" fill="black"/>
<rect width="4.27097" height="2.13548" transform="matrix(-1 0 0 1 36.3032 12.8125)" fill="black"/>
<rect width="2.13548" height="2.13548" transform="matrix(-1 0 0 1 19.2195 12.8125)" fill="black"/>
<rect width="2.13548" height="2.13548" transform="matrix(-1 0 0 1 10.6772 19.2197)" fill="black"/>
<rect width="2.13548" height="2.13548" transform="matrix(-1 0 0 1 10.6772 34.168)" fill="black"/>
<rect width="2.13548" height="2.13548" transform="matrix(-1 0 0 1 10.6772 49.1172)" fill="black"/>
<rect width="2.13548" height="2.13548" transform="matrix(-1 0 0 1 23.4902 66.1992)" fill="black"/>
<rect width="2.13548" height="2.13548" transform="matrix(-1 0 0 1 53.387 66.1992)" fill="black"/>
<rect width="2.13548" height="2.13548" transform="matrix(-1 0 0 1 85.4189 66.1992)" fill="black"/>
<rect width="4.27097" height="2.13548" transform="matrix(-1 0 0 1 130.264 66.1992)" fill="black"/>
<rect width="2.13548" height="2.13548" transform="matrix(-1 0 0 1 117.452 64.0654)" fill="black"/>
<rect width="2.13548" height="2.13548" transform="matrix(-1 0 0 1 115.316 66.1992)" fill="black"/>
<rect width="2.13548" height="2.13548" transform="matrix(-1 0 0 1 153.755 66.1992)" fill="black"/>
<rect width="2.13548" height="2.13548" transform="matrix(-1 0 0 1 155.89 64.0654)" fill="black"/>
<rect width="2.13548" height="2.13548" transform="matrix(-1 0 0 1 158.026 61.9287)" fill="black"/>
<rect width="2.13548" height="2.13548" transform="matrix(-1 0 0 1 166.567 66.1992)" fill="black"/>
<rect width="2.13548" height="2.13548" transform="matrix(-1 0 0 1 172.974 66.1992)" fill="black"/>
<rect width="2.13548" height="2.13548" transform="matrix(-1 0 0 1 170.839 66.1992)" fill="black"/>
<rect width="2.13548" height="2.13548" transform="matrix(-1 0 0 1 181.516 64.0654)" fill="black"/>
<rect width="2.13548" height="2.13548" transform="matrix(-1 0 0 1 196.465 64.0654)" fill="black"/>
<rect width="2.13548" height="2.13548" transform="matrix(-1 0 0 1 200.735 66.1992)" fill="black"/>
<rect width="2.13548" height="2.13548" transform="matrix(-1 0 0 1 230.632 66.1992)" fill="black"/>
<rect width="2.13548" height="2.13548" transform="matrix(-1 0 0 1 228.497 64.0654)" fill="black"/>
<rect width="2.13548" height="2.13548" transform="matrix(-1 0 0 1 215.684 66.1992)" fill="black"/>
<rect width="2.13548" height="2.13548" transform="matrix(-1 0 0 1 215.684 64.0654)" fill="black"/>
<rect width="2.13548" height="2.13548" transform="matrix(-1 0 0 1 249.852 66.1992)" fill="black"/>
<rect width="2.13548" height="2.13548" transform="matrix(-1 0 0 1 254.123 64.0654)" fill="black"/>
<rect width="2.13548" height="2.13548" transform="matrix(-1 0 0 1 256.258 64.0654)" fill="black"/>
<rect width="2.13548" height="2.13548" transform="matrix(-1 0 0 1 273.342 66.1992)" fill="black"/>
<rect width="2.13548" height="2.13548" transform="matrix(-1 0 0 1 234.903 64.0654)" fill="black"/>
<rect width="2.13548" height="2.13548" transform="matrix(-1 0 0 1 286.155 64.0654)" fill="black"/>
<rect width="2.13548" height="2.13548" transform="matrix(-1 0 0 1 288.29 66.1992)" fill="black"/>
<rect width="2.13548" height="2.13548" transform="matrix(-1 0 0 1 313.916 64.0654)" fill="black"/>
<rect width="2.13548" height="2.13548" transform="matrix(-1 0 0 1 305.374 66.1992)" fill="black"/>
<rect width="2.13548" height="2.13548" transform="matrix(-1 0 0 1 301.103 64.0654)" fill="black"/>
<rect width="2.13548" height="2.13548" transform="matrix(-1 0 0 1 298.968 66.1992)" fill="black"/>
<rect width="2.13548" height="2.13548" transform="matrix(-1 0 0 1 322.458 36.3037)" fill="black"/>
<rect width="2.13548" height="2.13548" transform="matrix(-1 0 0 1 320.322 38.4385)" fill="black"/>
<rect width="2.13548" height="2.13548" transform="matrix(-1 0 0 1 320.322 23.4912)" fill="black"/>
<rect width="2.13548" height="2.13548" transform="matrix(-1 0 0 1 322.458 14.9482)" fill="black"/>
<rect width="2.13548" height="2.13548" transform="matrix(-1 0 0 1 170.839 14.9482)" fill="black"/>
<rect width="2.13548" height="2.13548" transform="matrix(-1 0 0 1 83.2837 14.9482)" fill="black"/>
<rect width="2.13548" height="2.13548" transform="matrix(-1 0 0 1 85.4189 17.085)" fill="black"/>
<rect width="2.13548" height="2.13548" transform="matrix(-1 0 0 1 179.381 66.1992)" fill="black"/>
<rect width="2.13548" height="2.13548" transform="matrix(-1 0 0 1 198.6 66.1992)" fill="black"/>
<rect width="2.13548" height="4.27097" transform="matrix(-1 0 0 1 322.458 53.3867)" fill="black"/>
<rect width="2.13548" height="4.27097" transform="matrix(-1 0 0 1 322.458 25.626)" fill="black"/>
<rect width="2.13548" height="4.27097" transform="matrix(-1 0 0 1 192.193 12.8125)" fill="black"/>
<rect width="2.13548" height="2.13548" transform="matrix(-1 0 0 1 219.955 12.8125)" fill="black"/>
<rect width="4.27097" height="2.13548" transform="matrix(-1 0 0 1 256.258 12.8125)" fill="black"/>
<rect width="2.13548" height="2.13548" transform="matrix(-1 0 0 1 294.697 12.8125)" fill="black"/>
<rect width="2.13548" height="2.13548" transform="matrix(-1 0 0 1 318.187 12.8125)" fill="black"/>
<rect width="2.13548" height="2.13548" transform="matrix(-1 0 0 1 316.052 12.8125)" fill="black"/>
<rect width="2.13548" height="2.13548" transform="matrix(-1 0 0 1 275.478 12.8125)" fill="black"/>
<rect width="2.13548" height="2.13548" transform="matrix(-1 0 0 1 251.987 14.9482)" fill="black"/>
<rect width="2.13548" height="2.13548" transform="matrix(-1 0 0 1 230.632 14.9482)" fill="black"/>
<rect width="2.13548" height="2.13548" transform="matrix(-1 0 0 1 232.768 12.8125)" fill="black"/>
<rect width="2.13548" height="2.13548" transform="matrix(-1 0 0 1 234.903 14.9482)" fill="black"/>
<rect width="2.13548" height="2.13548" transform="matrix(-1 0 0 1 273.342 12.8125)" fill="black"/>
<rect width="2.13548" height="2.13548" transform="matrix(-1 0 0 1 322.458 8.54199)" fill="black"/>
<rect width="2.13548" height="2.13548" transform="matrix(-1 0 0 1 326.729 19.2197)" fill="black"/>
<rect width="2.13548" height="2.13548" transform="matrix(-1 0 0 1 326.729 42.709)" fill="black"/>
<rect width="2.13548" height="2.13548" transform="matrix(-1 0 0 1 324.594 66.1992)" fill="black"/>
<rect width="2.13548" height="2.13548" transform="matrix(-1 0 0 1 200.735 70.4717)" fill="black"/>
<rect width="6.40645" height="2.13548" transform="matrix(-1 0 0 1 164.432 70.4717)" fill="black"/>
<rect width="4.27097" height="2.13548" transform="matrix(-1 0 0 1 106.774 70.4717)" fill="black"/>
<rect width="4.27097" height="2.13548" transform="matrix(-1 0 0 1 79.0129 70.4717)" fill="black"/>
<rect width="2.13548" height="2.13548" transform="matrix(-1 0 0 1 132.4 70.4717)" fill="black"/>
<rect width="2.13548" height="2.13548" transform="matrix(-1 0 0 1 51.2515 70.4717)" fill="black"/>
<rect width="2.13548" height="2.13548" transform="matrix(-1 0 0 1 25.6255 70.4717)" fill="black"/>
<rect width="2.13548" height="2.13548" transform="matrix(-1 0 0 1 10.6772 70.4717)" fill="black"/>
<rect width="2.13548" height="2.13548" transform="matrix(-1 0 0 1 10.6772 68.335)" fill="black"/>
<rect width="2.13548" height="4.27097" transform="matrix(-1 0 0 1 6.40625 61.9287)" fill="black"/>
<rect width="2.13548" height="6.40645" transform="matrix(-1 0 0 1 6.40625 34.168)" fill="black"/>
<rect width="2.13548" height="2.13548" transform="matrix(-1 0 0 1 6.40625 14.9482)" fill="black"/>
<rect x="320.322" y="68.335" width="2.1355" height="309.645" transform="rotate(90 320.322 68.335)" fill="black"/>
<rect x="320.322" y="10.6777" width="2.1355" height="309.645" transform="rotate(90 320.322 10.6777)" fill="black"/>
<rect width="2.13548" height="2.13548" transform="matrix(-1 0 0 1 27.7612 68.335)" fill="white"/>
<rect width="2.13548" height="2.13548" transform="matrix(-1 0 0 1 44.845 68.335)" fill="white"/>
<path d="M69.5625 46.8125V44.625H71.75V46.8125H69.5625ZM71.75 44.625V42.4375H73.9375V44.625H71.75ZM69.5625 44.625H67.375V42.4375H69.5625V44.625ZM73.9375 42.4375V40.25V38.0625V35.875V33.6875V31.5H76.125V33.6875V35.875V38.0625V40.25V42.4375H73.9375ZM67.375 42.4375H65.1875V40.25V38.0625V35.875V33.6875V31.5H67.375V33.6875V35.875V38.0625V40.25V42.4375ZM80.5 46.8125V44.625V42.4375V40.25V38.0625V35.875H82.6875V38.0625V40.25V42.4375V44.625V46.8125H80.5ZM80.5 33.6875V31.5H82.6875V33.6875H80.5ZM91.4375 44.625H93.625V46.8125H91.4375H89.25H87.0625V44.625H89.25H91.4375ZM93.625 44.625V42.4375H95.8125V44.625H93.625ZM93.625 42.4375H91.4375H89.25V40.25H91.4375H93.625V42.4375ZM89.25 40.25H87.0625V38.0625H89.25V40.25ZM93.625 35.875H95.8125V38.0625H93.625H91.4375H89.25V35.875H91.4375H93.625ZM100.188 46.8125V44.625V42.4375V40.25V38.0625V35.875H102.375V38.0625V40.25V42.4375V44.625V46.8125H100.188ZM100.188 33.6875V31.5H102.375V33.6875H100.188ZM111.125 44.625H113.312V46.8125H111.125H108.938V44.625H111.125ZM108.938 44.625H106.75V42.4375V40.25V38.0625V35.875V33.6875V31.5H108.938V33.6875V35.875H111.125H113.312V38.0625H111.125H108.938V40.25V42.4375V44.625ZM133 44.625H135.188V46.8125H133H130.812H128.625V44.625H130.812H133ZM135.188 44.625V42.4375H137.375V44.625H135.188ZM135.188 42.4375H133H130.812V40.25H133H135.188V42.4375ZM130.812 40.25H128.625V38.0625H130.812V40.25ZM135.188 35.875H137.375V38.0625H135.188H133H130.812V35.875H133H135.188ZM146.125 44.625H148.312V46.8125H146.125H143.938V44.625H146.125ZM143.938 44.625H141.75V42.4375V40.25V38.0625V35.875V33.6875V31.5H143.938V33.6875V35.875H146.125H148.312V38.0625H146.125H143.938V40.25V42.4375V44.625ZM159.25 44.625H161.438V46.8125H159.25H157.062H154.875V44.625H157.062H159.25ZM161.438 44.625V42.4375V40.25V38.0625H163.625V40.25V42.4375V44.625H161.438ZM154.875 44.625H152.688V42.4375V40.25V38.0625H154.875V40.25V42.4375V44.625ZM161.438 38.0625H159.25H157.062H154.875V35.875H157.062H159.25H161.438V38.0625ZM168 46.8125V44.625V42.4375V40.25V38.0625V35.875H170.188V38.0625H172.375V40.25H170.188V42.4375V44.625V46.8125H168ZM174.562 40.25V38.0625H176.75V40.25H174.562ZM174.562 38.0625H172.375V35.875H174.562V38.0625ZM189.875 44.625H192.062V46.8125H189.875H187.688H185.5H183.312V44.625H185.5H187.688H189.875ZM183.312 44.625H181.125V42.4375V40.25V38.0625H183.312V40.25H185.5H187.688H189.875V42.4375H187.688H185.5H183.312V44.625ZM189.875 40.25V38.0625H192.062V40.25H189.875ZM189.875 38.0625H187.688H185.5H183.312V35.875H185.5H187.688H189.875V38.0625ZM207.375 53.375V51.1875V49V46.8125V44.625V42.4375V40.25V38.0625H209.562V40.25V42.4375V44.625H211.75H213.938H216.125V46.8125H213.938H211.75H209.562V49V51.1875V53.375H207.375ZM216.125 44.625V42.4375V40.25V38.0625H218.312V40.25V42.4375V44.625H216.125ZM216.125 38.0625H213.938H211.75H209.562V35.875H211.75H213.938H216.125V38.0625ZM231.438 46.8125H229.25H227.062H224.875V44.625H227.062H229.25V42.4375V40.25V38.0625H231.438V40.25V42.4375V44.625H233.625V46.8125H231.438ZM224.875 44.625H222.688V42.4375V40.25V38.0625H224.875V40.25V42.4375V44.625ZM229.25 38.0625H227.062H224.875V35.875H227.062H229.25V38.0625ZM244.562 51.1875H246.75V53.375H244.562H242.375H240.188V51.1875H242.375H244.562ZM246.75 51.1875V49V46.8125H244.562H242.375H240.188V44.625H242.375H244.562H246.75V42.4375V40.25V38.0625H248.938V40.25V42.4375V44.625V46.8125V49V51.1875H246.75ZM240.188 51.1875H238V49H240.188V51.1875ZM240.188 44.625H238V42.4375V40.25V38.0625H240.188V40.25V42.4375V44.625ZM246.75 38.0625H244.562H242.375H240.188V35.875H242.375H244.562H246.75V38.0625ZM262.062 44.625H264.25V46.8125H262.062H259.875H257.688H255.5V44.625H257.688H259.875H262.062ZM255.5 44.625H253.312V42.4375V40.25V38.0625H255.5V40.25H257.688H259.875H262.062V42.4375H259.875H257.688H255.5V44.625ZM262.062 40.25V38.0625H264.25V40.25H262.062ZM262.062 38.0625H259.875H257.688H255.5V35.875H257.688H259.875H262.062V38.0625Z" fill="black"/>
</svg>
