<svg width="275" height="67" viewBox="0 0 275 67" fill="none" xmlns="http://www.w3.org/2000/svg">
<rect x="0.5" y="0.5" width="274" height="66" stroke="url(#paint0_linear_13216_4745)"/>
<path d="M53.1 41C52.9 41 52.74 40.9533 52.62 40.86C52.5133 40.7667 52.4267 40.6467 52.36 40.5L48.66 31.22C48.6333 31.1533 48.62 31.0867 48.62 31.02C48.62 30.9 48.66 30.8 48.74 30.72C48.82 30.64 48.92 30.6 49.04 30.6H50C50.1467 30.6 50.26 30.64 50.34 30.72C50.42 30.8 50.4667 30.8733 50.48 30.94L53.54 38.82L56.58 30.94C56.6067 30.8733 56.6533 30.8 56.72 30.72C56.8 30.64 56.9133 30.6 57.06 30.6H58.04C58.1467 30.6 58.24 30.64 58.32 30.72C58.4133 30.8 58.46 30.9 58.46 31.02C58.46 31.0867 58.4467 31.1533 58.42 31.22L54.7 40.5C54.6467 40.6467 54.56 40.7667 54.44 40.86C54.3333 40.9533 54.1733 41 53.96 41H53.1ZM63.4142 41C63.2809 41 63.1676 40.96 63.0742 40.88C62.9942 40.7867 62.9542 40.6733 62.9542 40.54V31.06C62.9542 30.9267 62.9942 30.82 63.0742 30.74C63.1676 30.6467 63.2809 30.6 63.4142 30.6H64.3742C64.5076 30.6 64.6142 30.6467 64.6942 30.74C64.7742 30.82 64.8142 30.9267 64.8142 31.06V40.54C64.8142 40.6733 64.7742 40.7867 64.6942 40.88C64.6142 40.96 64.5076 41 64.3742 41H63.4142ZM63.2542 28.66C63.1209 28.66 63.0076 28.62 62.9142 28.54C62.8342 28.4467 62.7942 28.3333 62.7942 28.2V27.12C62.7942 26.9867 62.8342 26.88 62.9142 26.8C63.0076 26.7067 63.1209 26.66 63.2542 26.66H64.5142C64.6476 26.66 64.7542 26.7067 64.8342 26.8C64.9276 26.88 64.9742 26.9867 64.9742 27.12V28.2C64.9742 28.3333 64.9276 28.4467 64.8342 28.54C64.7542 28.62 64.6476 28.66 64.5142 28.66H63.2542ZM73.798 41.2C73.0513 41.2 72.4113 41.1067 71.878 40.92C71.3446 40.7333 70.9113 40.5067 70.578 40.24C70.2446 39.9733 69.9913 39.7067 69.818 39.44C69.658 39.1733 69.5713 38.96 69.558 38.8C69.5446 38.6533 69.5913 38.54 69.698 38.46C69.8046 38.38 69.9113 38.34 70.018 38.34H70.898C70.978 38.34 71.038 38.3533 71.078 38.38C71.1313 38.3933 71.198 38.4467 71.278 38.54C71.4513 38.7267 71.6446 38.9133 71.858 39.1C72.0713 39.2867 72.3313 39.44 72.638 39.56C72.958 39.68 73.3513 39.74 73.818 39.74C74.498 39.74 75.058 39.6133 75.498 39.36C75.938 39.0933 76.158 38.7067 76.158 38.2C76.158 37.8667 76.0646 37.6 75.878 37.4C75.7046 37.2 75.3846 37.02 74.918 36.86C74.4646 36.7 73.838 36.5333 73.038 36.36C72.238 36.1733 71.6046 35.9467 71.138 35.68C70.6713 35.4 70.338 35.0733 70.138 34.7C69.938 34.3133 69.838 33.88 69.838 33.4C69.838 32.9067 69.9846 32.4333 70.278 31.98C70.5713 31.5133 70.998 31.1333 71.558 30.84C72.1313 30.5467 72.8446 30.4 73.698 30.4C74.3913 30.4 74.9846 30.4867 75.478 30.66C75.9713 30.8333 76.378 31.0533 76.698 31.32C77.018 31.5733 77.258 31.8267 77.418 32.08C77.578 32.3333 77.6646 32.5467 77.678 32.72C77.6913 32.8533 77.6513 32.9667 77.558 33.06C77.4646 33.14 77.358 33.18 77.238 33.18H76.398C76.3046 33.18 76.2246 33.16 76.158 33.12C76.1046 33.08 76.0513 33.0333 75.998 32.98C75.8646 32.8067 75.7046 32.6333 75.518 32.46C75.3446 32.2867 75.1113 32.1467 74.818 32.04C74.538 31.92 74.1646 31.86 73.698 31.86C73.0313 31.86 72.5313 32 72.198 32.28C71.8646 32.56 71.698 32.9133 71.698 33.34C71.698 33.5933 71.7713 33.82 71.918 34.02C72.0646 34.22 72.3446 34.4 72.758 34.56C73.1713 34.72 73.7846 34.8933 74.598 35.08C75.478 35.2533 76.1713 35.4867 76.678 35.78C77.1846 36.0733 77.5446 36.4133 77.758 36.8C77.9713 37.1867 78.078 37.6333 78.078 38.14C78.078 38.7 77.9113 39.2133 77.578 39.68C77.258 40.1467 76.778 40.52 76.138 40.8C75.5113 41.0667 74.7313 41.2 73.798 41.2ZM83.2533 41C83.1199 41 83.0066 40.96 82.9133 40.88C82.8333 40.7867 82.7933 40.6733 82.7933 40.54V31.06C82.7933 30.9267 82.8333 30.82 82.9133 30.74C83.0066 30.6467 83.1199 30.6 83.2533 30.6H84.2133C84.3466 30.6 84.4533 30.6467 84.5333 30.74C84.6133 30.82 84.6533 30.9267 84.6533 31.06V40.54C84.6533 40.6733 84.6133 40.7867 84.5333 40.88C84.4533 40.96 84.3466 41 84.2133 41H83.2533ZM83.0933 28.66C82.9599 28.66 82.8466 28.62 82.7533 28.54C82.6733 28.4467 82.6333 28.3333 82.6333 28.2V27.12C82.6333 26.9867 82.6733 26.88 82.7533 26.8C82.8466 26.7067 82.9599 26.66 83.0933 26.66H84.3533C84.4866 26.66 84.5933 26.7067 84.6733 26.8C84.7666 26.88 84.8133 26.9867 84.8133 27.12V28.2C84.8133 28.3333 84.7666 28.4467 84.6733 28.54C84.5933 28.62 84.4866 28.66 84.3533 28.66H83.0933ZM94.097 41C93.3504 41 92.7437 40.86 92.277 40.58C91.8104 40.2867 91.4704 39.88 91.257 39.36C91.0437 38.8267 90.937 38.2 90.937 37.48V32.2H89.377C89.2437 32.2 89.1304 32.16 89.037 32.08C88.957 31.9867 88.917 31.8733 88.917 31.74V31.06C88.917 30.9267 88.957 30.82 89.037 30.74C89.1304 30.6467 89.2437 30.6 89.377 30.6H90.937V27.26C90.937 27.1267 90.977 27.02 91.057 26.94C91.1504 26.8467 91.2637 26.8 91.397 26.8H92.337C92.4704 26.8 92.577 26.8467 92.657 26.94C92.7504 27.02 92.797 27.1267 92.797 27.26V30.6H95.277C95.4104 30.6 95.517 30.6467 95.597 30.74C95.6904 30.82 95.737 30.9267 95.737 31.06V31.74C95.737 31.8733 95.6904 31.9867 95.597 32.08C95.517 32.16 95.4104 32.2 95.277 32.2H92.797V37.34C92.797 37.9667 92.9037 38.46 93.117 38.82C93.3304 39.18 93.7104 39.36 94.257 39.36H95.477C95.6104 39.36 95.717 39.4067 95.797 39.5C95.8904 39.58 95.937 39.6867 95.937 39.82V40.54C95.937 40.6733 95.8904 40.7867 95.797 40.88C95.717 40.96 95.6104 41 95.477 41H94.097ZM111.152 41.2C110.405 41.2 109.765 41.1067 109.232 40.92C108.699 40.7333 108.265 40.5067 107.932 40.24C107.599 39.9733 107.345 39.7067 107.172 39.44C107.012 39.1733 106.925 38.96 106.912 38.8C106.899 38.6533 106.945 38.54 107.052 38.46C107.159 38.38 107.265 38.34 107.372 38.34H108.252C108.332 38.34 108.392 38.3533 108.432 38.38C108.485 38.3933 108.552 38.4467 108.632 38.54C108.805 38.7267 108.999 38.9133 109.212 39.1C109.425 39.2867 109.685 39.44 109.992 39.56C110.312 39.68 110.705 39.74 111.172 39.74C111.852 39.74 112.412 39.6133 112.852 39.36C113.292 39.0933 113.512 38.7067 113.512 38.2C113.512 37.8667 113.419 37.6 113.232 37.4C113.059 37.2 112.739 37.02 112.272 36.86C111.819 36.7 111.192 36.5333 110.392 36.36C109.592 36.1733 108.959 35.9467 108.492 35.68C108.025 35.4 107.692 35.0733 107.492 34.7C107.292 34.3133 107.192 33.88 107.192 33.4C107.192 32.9067 107.339 32.4333 107.632 31.98C107.925 31.5133 108.352 31.1333 108.912 30.84C109.485 30.5467 110.199 30.4 111.052 30.4C111.745 30.4 112.339 30.4867 112.832 30.66C113.325 30.8333 113.732 31.0533 114.052 31.32C114.372 31.5733 114.612 31.8267 114.772 32.08C114.932 32.3333 115.019 32.5467 115.032 32.72C115.045 32.8533 115.005 32.9667 114.912 33.06C114.819 33.14 114.712 33.18 114.592 33.18H113.752C113.659 33.18 113.579 33.16 113.512 33.12C113.459 33.08 113.405 33.0333 113.352 32.98C113.219 32.8067 113.059 32.6333 112.872 32.46C112.699 32.2867 112.465 32.1467 112.172 32.04C111.892 31.92 111.519 31.86 111.052 31.86C110.385 31.86 109.885 32 109.552 32.28C109.219 32.56 109.052 32.9133 109.052 33.34C109.052 33.5933 109.125 33.82 109.272 34.02C109.419 34.22 109.699 34.4 110.112 34.56C110.525 34.72 111.139 34.8933 111.952 35.08C112.832 35.2533 113.525 35.4867 114.032 35.78C114.539 36.0733 114.899 36.4133 115.112 36.8C115.325 37.1867 115.432 37.6333 115.432 38.14C115.432 38.7 115.265 39.2133 114.932 39.68C114.612 40.1467 114.132 40.52 113.492 40.8C112.865 41.0667 112.085 41.2 111.152 41.2ZM124.188 41C123.441 41 122.834 40.86 122.368 40.58C121.901 40.2867 121.561 39.88 121.348 39.36C121.134 38.8267 121.028 38.2 121.028 37.48V32.2H119.468C119.334 32.2 119.221 32.16 119.128 32.08C119.048 31.9867 119.008 31.8733 119.008 31.74V31.06C119.008 30.9267 119.048 30.82 119.128 30.74C119.221 30.6467 119.334 30.6 119.468 30.6H121.028V27.26C121.028 27.1267 121.068 27.02 121.148 26.94C121.241 26.8467 121.354 26.8 121.488 26.8H122.428C122.561 26.8 122.668 26.8467 122.748 26.94C122.841 27.02 122.888 27.1267 122.888 27.26V30.6H125.368C125.501 30.6 125.608 30.6467 125.688 30.74C125.781 30.82 125.828 30.9267 125.828 31.06V31.74C125.828 31.8733 125.781 31.9867 125.688 32.08C125.608 32.16 125.501 32.2 125.368 32.2H122.888V37.34C122.888 37.9667 122.994 38.46 123.208 38.82C123.421 39.18 123.801 39.36 124.348 39.36H125.568C125.701 39.36 125.808 39.4067 125.888 39.5C125.981 39.58 126.028 39.6867 126.028 39.82V40.54C126.028 40.6733 125.981 40.7867 125.888 40.88C125.808 40.96 125.701 41 125.568 41H124.188ZM134.6 41.2C133.587 41.2 132.74 41.0067 132.06 40.62C131.38 40.2333 130.86 39.7 130.5 39.02C130.14 38.3267 129.94 37.54 129.9 36.66C129.887 36.4333 129.88 36.1467 129.88 35.8C129.88 35.44 129.887 35.1533 129.9 34.94C129.94 34.0467 130.14 33.26 130.5 32.58C130.873 31.9 131.4 31.3667 132.08 30.98C132.76 30.5933 133.6 30.4 134.6 30.4C135.6 30.4 136.44 30.5933 137.12 30.98C137.8 31.3667 138.32 31.9 138.68 32.58C139.053 33.26 139.26 34.0467 139.3 34.94C139.313 35.1533 139.32 35.44 139.32 35.8C139.32 36.1467 139.313 36.4333 139.3 36.66C139.26 37.54 139.06 38.3267 138.7 39.02C138.34 39.7 137.82 40.2333 137.14 40.62C136.46 41.0067 135.613 41.2 134.6 41.2ZM134.6 39.66C135.427 39.66 136.087 39.4 136.58 38.88C137.073 38.3467 137.34 37.5733 137.38 36.56C137.393 36.36 137.4 36.1067 137.4 35.8C137.4 35.4933 137.393 35.24 137.38 35.04C137.34 34.0267 137.073 33.26 136.58 32.74C136.087 32.2067 135.427 31.94 134.6 31.94C133.773 31.94 133.107 32.2067 132.6 32.74C132.107 33.26 131.847 34.0267 131.82 35.04C131.807 35.24 131.8 35.4933 131.8 35.8C131.8 36.1067 131.807 36.36 131.82 36.56C131.847 37.5733 132.107 38.3467 132.6 38.88C133.107 39.4 133.773 39.66 134.6 39.66ZM144.685 41C144.551 41 144.438 40.96 144.345 40.88C144.265 40.7867 144.225 40.6733 144.225 40.54V31.08C144.225 30.9467 144.265 30.8333 144.345 30.74C144.438 30.6467 144.551 30.6 144.685 30.6H145.605C145.738 30.6 145.851 30.6467 145.945 30.74C146.038 30.8333 146.085 30.9467 146.085 31.08V31.96C146.351 31.5067 146.718 31.1667 147.185 30.94C147.651 30.7133 148.211 30.6 148.865 30.6H149.665C149.798 30.6 149.905 30.6467 149.985 30.74C150.065 30.82 150.105 30.9267 150.105 31.06V31.88C150.105 32.0133 150.065 32.12 149.985 32.2C149.905 32.28 149.798 32.32 149.665 32.32H148.465C147.745 32.32 147.178 32.5333 146.765 32.96C146.351 33.3733 146.145 33.94 146.145 34.66V40.54C146.145 40.6733 146.098 40.7867 146.005 40.88C145.911 40.96 145.798 41 145.665 41H144.685ZM158.167 41.2C156.794 41.2 155.7 40.78 154.887 39.94C154.074 39.0867 153.627 37.9267 153.547 36.46C153.534 36.2867 153.527 36.0667 153.527 35.8C153.527 35.52 153.534 35.2933 153.547 35.12C153.6 34.1733 153.82 33.3467 154.207 32.64C154.594 31.92 155.12 31.3667 155.787 30.98C156.467 30.5933 157.26 30.4 158.167 30.4C159.18 30.4 160.027 30.6133 160.707 31.04C161.4 31.4667 161.927 32.0733 162.287 32.86C162.647 33.6467 162.827 34.5667 162.827 35.62V35.96C162.827 36.1067 162.78 36.22 162.687 36.3C162.607 36.38 162.5 36.42 162.367 36.42H155.447C155.447 36.4333 155.447 36.46 155.447 36.5C155.447 36.54 155.447 36.5733 155.447 36.6C155.474 37.1467 155.594 37.66 155.807 38.14C156.02 38.6067 156.327 38.9867 156.727 39.28C157.127 39.5733 157.607 39.72 158.167 39.72C158.647 39.72 159.047 39.6467 159.367 39.5C159.687 39.3533 159.947 39.1933 160.147 39.02C160.347 38.8333 160.48 38.6933 160.547 38.6C160.667 38.4267 160.76 38.3267 160.827 38.3C160.894 38.26 161 38.24 161.147 38.24H162.107C162.24 38.24 162.347 38.28 162.427 38.36C162.52 38.4267 162.56 38.5267 162.547 38.66C162.534 38.86 162.427 39.1067 162.227 39.4C162.027 39.68 161.74 39.96 161.367 40.24C160.994 40.52 160.54 40.7533 160.007 40.94C159.474 41.1133 158.86 41.2 158.167 41.2ZM155.447 35.04H160.927V34.98C160.927 34.38 160.814 33.8467 160.587 33.38C160.374 32.9133 160.06 32.5467 159.647 32.28C159.234 32 158.74 31.86 158.167 31.86C157.594 31.86 157.1 32 156.687 32.28C156.287 32.5467 155.98 32.9133 155.767 33.38C155.554 33.8467 155.447 34.38 155.447 34.98V35.04ZM175.401 44.8C175.267 44.8 175.154 44.7533 175.061 44.66C174.981 44.58 174.941 44.4733 174.941 44.34V31.06C174.941 30.9267 174.981 30.82 175.061 30.74C175.154 30.6467 175.267 30.6 175.401 30.6H176.321C176.454 30.6 176.561 30.6467 176.641 30.74C176.734 30.82 176.781 30.9267 176.781 31.06V31.94C177.101 31.5 177.527 31.1333 178.061 30.84C178.594 30.5467 179.261 30.4 180.061 30.4C180.807 30.4 181.441 30.5267 181.961 30.78C182.494 31.0333 182.927 31.38 183.261 31.82C183.607 32.26 183.867 32.76 184.041 33.32C184.214 33.88 184.307 34.48 184.321 35.12C184.334 35.3333 184.341 35.56 184.341 35.8C184.341 36.04 184.334 36.2667 184.321 36.48C184.307 37.1067 184.214 37.7067 184.041 38.28C183.867 38.84 183.607 39.34 183.261 39.78C182.927 40.2067 182.494 40.5533 181.961 40.82C181.441 41.0733 180.807 41.2 180.061 41.2C179.287 41.2 178.634 41.06 178.101 40.78C177.581 40.4867 177.154 40.1267 176.821 39.7V44.34C176.821 44.4733 176.781 44.58 176.701 44.66C176.621 44.7533 176.507 44.8 176.361 44.8H175.401ZM179.641 39.58C180.334 39.58 180.874 39.4333 181.261 39.14C181.661 38.8333 181.947 38.44 182.121 37.96C182.294 37.4667 182.394 36.94 182.421 36.38C182.434 35.9933 182.434 35.6067 182.421 35.22C182.394 34.66 182.294 34.14 182.121 33.66C181.947 33.1667 181.661 32.7733 181.261 32.48C180.874 32.1733 180.334 32.02 179.641 32.02C178.987 32.02 178.454 32.1733 178.041 32.48C177.641 32.7867 177.341 33.18 177.141 33.66C176.954 34.1267 176.847 34.6067 176.821 35.1C176.807 35.3133 176.801 35.5667 176.801 35.86C176.801 36.1533 176.807 36.4133 176.821 36.64C176.834 37.1067 176.941 37.5667 177.141 38.02C177.354 38.4733 177.667 38.8467 178.081 39.14C178.494 39.4333 179.014 39.58 179.641 39.58ZM192.135 41.2C191.468 41.2 190.861 41.0667 190.315 40.8C189.768 40.5333 189.328 40.1733 188.995 39.72C188.661 39.2667 188.495 38.7533 188.495 38.18C188.495 37.26 188.868 36.5267 189.615 35.98C190.361 35.4333 191.335 35.0733 192.535 34.9L195.515 34.48V33.9C195.515 33.26 195.328 32.76 194.955 32.4C194.595 32.04 194.001 31.86 193.175 31.86C192.575 31.86 192.088 31.98 191.715 32.22C191.355 32.46 191.101 32.7667 190.955 33.14C190.875 33.34 190.735 33.44 190.535 33.44H189.635C189.488 33.44 189.375 33.4 189.295 33.32C189.228 33.2267 189.195 33.12 189.195 33C189.195 32.8 189.268 32.5533 189.415 32.26C189.575 31.9667 189.815 31.68 190.135 31.4C190.455 31.12 190.861 30.8867 191.355 30.7C191.861 30.5 192.475 30.4 193.195 30.4C193.995 30.4 194.668 30.5067 195.215 30.72C195.761 30.92 196.188 31.1933 196.495 31.54C196.815 31.8867 197.041 32.28 197.175 32.72C197.321 33.16 197.395 33.6067 197.395 34.06V40.54C197.395 40.6733 197.348 40.7867 197.255 40.88C197.175 40.96 197.068 41 196.935 41H196.015C195.868 41 195.755 40.96 195.675 40.88C195.595 40.7867 195.555 40.6733 195.555 40.54V39.68C195.381 39.92 195.148 40.16 194.855 40.4C194.561 40.6267 194.195 40.82 193.755 40.98C193.315 41.1267 192.775 41.2 192.135 41.2ZM192.555 39.7C193.101 39.7 193.601 39.5867 194.055 39.36C194.508 39.12 194.861 38.7533 195.115 38.26C195.381 37.7667 195.515 37.1467 195.515 36.4V35.84L193.195 36.18C192.248 36.3133 191.535 36.54 191.055 36.86C190.575 37.1667 190.335 37.56 190.335 38.04C190.335 38.4133 190.441 38.7267 190.655 38.98C190.881 39.22 191.161 39.4 191.495 39.52C191.841 39.64 192.195 39.7 192.555 39.7ZM206.93 45.4C206.023 45.4 205.277 45.28 204.69 45.04C204.117 44.8 203.663 44.5067 203.33 44.16C203.01 43.8267 202.777 43.4867 202.63 43.14C202.497 42.8067 202.423 42.54 202.41 42.34C202.397 42.2067 202.437 42.0933 202.53 42C202.637 41.9067 202.75 41.86 202.87 41.86H203.83C203.95 41.86 204.05 41.8867 204.13 41.94C204.21 41.9933 204.277 42.1067 204.33 42.28C204.41 42.48 204.53 42.7 204.69 42.94C204.85 43.1933 205.097 43.4067 205.43 43.58C205.763 43.7667 206.23 43.86 206.83 43.86C207.457 43.86 207.983 43.7733 208.41 43.6C208.837 43.44 209.157 43.1467 209.37 42.72C209.597 42.3067 209.71 41.7333 209.71 41V39.64C209.39 40.0533 208.97 40.4 208.45 40.68C207.93 40.9467 207.277 41.08 206.49 41.08C205.743 41.08 205.103 40.9533 204.57 40.7C204.037 40.4333 203.597 40.08 203.25 39.64C202.917 39.1867 202.663 38.6733 202.49 38.1C202.33 37.5267 202.237 36.9267 202.21 36.3C202.197 35.9267 202.197 35.56 202.21 35.2C202.237 34.5733 202.33 33.9733 202.49 33.4C202.663 32.8267 202.917 32.3133 203.25 31.86C203.597 31.4067 204.037 31.0533 204.57 30.8C205.103 30.5333 205.743 30.4 206.49 30.4C207.29 30.4 207.95 30.5533 208.47 30.86C209.003 31.1533 209.437 31.5133 209.77 31.94V31.08C209.77 30.9467 209.81 30.8333 209.89 30.74C209.983 30.6467 210.097 30.6 210.23 30.6H211.15C211.283 30.6 211.397 30.6467 211.49 30.74C211.583 30.8333 211.63 30.9467 211.63 31.08V40.78C211.63 41.6733 211.477 42.4667 211.17 43.16C210.877 43.8533 210.383 44.4 209.69 44.8C209.01 45.2 208.09 45.4 206.93 45.4ZM206.89 39.48C207.557 39.48 208.09 39.3267 208.49 39.02C208.903 38.7133 209.203 38.3267 209.39 37.86C209.59 37.3933 209.697 36.92 209.71 36.44C209.723 36.2533 209.73 36.0267 209.73 35.76C209.73 35.48 209.723 35.2467 209.71 35.06C209.697 34.58 209.59 34.1067 209.39 33.64C209.203 33.1733 208.903 32.7867 208.49 32.48C208.09 32.1733 207.557 32.02 206.89 32.02C206.223 32.02 205.69 32.1733 205.29 32.48C204.89 32.7733 204.603 33.1667 204.43 33.66C204.257 34.14 204.157 34.66 204.13 35.22C204.117 35.5667 204.117 35.92 204.13 36.28C204.157 36.84 204.257 37.3667 204.43 37.86C204.603 38.34 204.89 38.7333 205.29 39.04C205.69 39.3333 206.223 39.48 206.89 39.48ZM221.143 41.2C219.77 41.2 218.677 40.78 217.863 39.94C217.05 39.0867 216.603 37.9267 216.523 36.46C216.51 36.2867 216.503 36.0667 216.503 35.8C216.503 35.52 216.51 35.2933 216.523 35.12C216.577 34.1733 216.797 33.3467 217.183 32.64C217.57 31.92 218.097 31.3667 218.763 30.98C219.443 30.5933 220.237 30.4 221.143 30.4C222.157 30.4 223.003 30.6133 223.683 31.04C224.377 31.4667 224.903 32.0733 225.263 32.86C225.623 33.6467 225.803 34.5667 225.803 35.62V35.96C225.803 36.1067 225.757 36.22 225.663 36.3C225.583 36.38 225.477 36.42 225.343 36.42H218.423C218.423 36.4333 218.423 36.46 218.423 36.5C218.423 36.54 218.423 36.5733 218.423 36.6C218.45 37.1467 218.57 37.66 218.783 38.14C218.997 38.6067 219.303 38.9867 219.703 39.28C220.103 39.5733 220.583 39.72 221.143 39.72C221.623 39.72 222.023 39.6467 222.343 39.5C222.663 39.3533 222.923 39.1933 223.123 39.02C223.323 38.8333 223.457 38.6933 223.523 38.6C223.643 38.4267 223.737 38.3267 223.803 38.3C223.87 38.26 223.977 38.24 224.123 38.24H225.083C225.217 38.24 225.323 38.28 225.403 38.36C225.497 38.4267 225.537 38.5267 225.523 38.66C225.51 38.86 225.403 39.1067 225.203 39.4C225.003 39.68 224.717 39.96 224.343 40.24C223.97 40.52 223.517 40.7533 222.983 40.94C222.45 41.1133 221.837 41.2 221.143 41.2ZM218.423 35.04H223.903V34.98C223.903 34.38 223.79 33.8467 223.563 33.38C223.35 32.9133 223.037 32.5467 222.623 32.28C222.21 32 221.717 31.86 221.143 31.86C220.57 31.86 220.077 32 219.663 32.28C219.263 32.5467 218.957 32.9133 218.743 33.38C218.53 33.8467 218.423 34.38 218.423 34.98V35.04Z" fill="url(#paint1_linear_13216_4745)"/>
<defs>
<linearGradient id="paint0_linear_13216_4745" x1="0" y1="33.5" x2="275" y2="33.5" gradientUnits="userSpaceOnUse">
<stop stop-color="#1F2833"/>
<stop offset="1" stop-color="#1F2833" stop-opacity="0.4"/>
</linearGradient>
<linearGradient id="paint1_linear_13216_4745" x1="227" y1="34" x2="48" y2="34" gradientUnits="userSpaceOnUse">
<stop stop-color="#1F2833"/>
<stop offset="1" stop-color="#1F2833" stop-opacity="0.4"/>
</linearGradient>
</defs>
</svg>
