<svg width="223" height="67" viewBox="0 0 223 67" fill="none" xmlns="http://www.w3.org/2000/svg">
<rect x="0.5" y="0.5" width="222" height="66" stroke="url(#paint0_linear_13216_4686)"/>
<path d="M53.68 41.2C52.7333 41.2 51.9133 41.02 51.22 40.66C50.54 40.2867 50.0133 39.76 49.64 39.08C49.2667 38.3867 49.0667 37.56 49.04 36.6C49.0267 36.4 49.02 36.1333 49.02 35.8C49.02 35.4667 49.0267 35.2 49.04 35C49.0667 34.04 49.2667 33.22 49.64 32.54C50.0133 31.8467 50.54 31.32 51.22 30.96C51.9133 30.5867 52.7333 30.4 53.68 30.4C54.4533 30.4 55.1133 30.5067 55.66 30.72C56.22 30.9333 56.68 31.2067 57.04 31.54C57.4 31.8733 57.6667 32.2333 57.84 32.62C58.0267 33.0067 58.1267 33.3733 58.14 33.72C58.1533 33.8533 58.1133 33.96 58.02 34.04C57.9267 34.12 57.8133 34.16 57.68 34.16H56.72C56.5867 34.16 56.4867 34.1333 56.42 34.08C56.3533 34.0133 56.2867 33.9067 56.22 33.76C55.98 33.1067 55.6533 32.6467 55.24 32.38C54.8267 32.1133 54.3133 31.98 53.7 31.98C52.9 31.98 52.2467 32.2267 51.74 32.72C51.2467 33.2133 50.98 34.0067 50.94 35.1C50.9267 35.58 50.9267 36.0467 50.94 36.5C50.98 37.6067 51.2467 38.4067 51.74 38.9C52.2467 39.38 52.9 39.62 53.7 39.62C54.3133 39.62 54.8267 39.4867 55.24 39.22C55.6533 38.9533 55.98 38.4933 56.22 37.84C56.2867 37.6933 56.3533 37.5933 56.42 37.54C56.4867 37.4733 56.5867 37.44 56.72 37.44H57.68C57.8133 37.44 57.9267 37.48 58.02 37.56C58.1133 37.64 58.1533 37.7467 58.14 37.88C58.1267 38.16 58.0667 38.4467 57.96 38.74C57.8533 39.0333 57.68 39.3333 57.44 39.64C57.2133 39.9333 56.9267 40.2 56.58 40.44C56.2333 40.6667 55.8133 40.8533 55.32 41C54.84 41.1333 54.2933 41.2 53.68 41.2ZM67.1752 41.2C66.1618 41.2 65.3152 41.0067 64.6352 40.62C63.9552 40.2333 63.4352 39.7 63.0752 39.02C62.7152 38.3267 62.5152 37.54 62.4752 36.66C62.4618 36.4333 62.4552 36.1467 62.4552 35.8C62.4552 35.44 62.4618 35.1533 62.4752 34.94C62.5152 34.0467 62.7152 33.26 63.0752 32.58C63.4485 31.9 63.9752 31.3667 64.6552 30.98C65.3352 30.5933 66.1752 30.4 67.1752 30.4C68.1752 30.4 69.0152 30.5933 69.6952 30.98C70.3752 31.3667 70.8952 31.9 71.2552 32.58C71.6285 33.26 71.8352 34.0467 71.8752 34.94C71.8885 35.1533 71.8952 35.44 71.8952 35.8C71.8952 36.1467 71.8885 36.4333 71.8752 36.66C71.8352 37.54 71.6352 38.3267 71.2752 39.02C70.9152 39.7 70.3952 40.2333 69.7152 40.62C69.0352 41.0067 68.1885 41.2 67.1752 41.2ZM67.1752 39.66C68.0018 39.66 68.6618 39.4 69.1552 38.88C69.6485 38.3467 69.9152 37.5733 69.9552 36.56C69.9685 36.36 69.9752 36.1067 69.9752 35.8C69.9752 35.4933 69.9685 35.24 69.9552 35.04C69.9152 34.0267 69.6485 33.26 69.1552 32.74C68.6618 32.2067 68.0018 31.94 67.1752 31.94C66.3485 31.94 65.6818 32.2067 65.1752 32.74C64.6818 33.26 64.4218 34.0267 64.3952 35.04C64.3818 35.24 64.3752 35.4933 64.3752 35.8C64.3752 36.1067 64.3818 36.36 64.3952 36.56C64.4218 37.5733 64.6818 38.3467 65.1752 38.88C65.6818 39.4 66.3485 39.66 67.1752 39.66ZM77.2595 41C77.1262 41 77.0129 40.96 76.9195 40.88C76.8395 40.7867 76.7995 40.6733 76.7995 40.54V31.06C76.7995 30.9267 76.8395 30.82 76.9195 30.74C77.0129 30.6467 77.1262 30.6 77.2595 30.6H78.1995C78.3329 30.6 78.4395 30.6467 78.5195 30.74C78.6129 30.82 78.6595 30.9267 78.6595 31.06V31.94C79.0062 31.4867 79.4395 31.12 79.9595 30.84C80.4929 30.5467 81.1729 30.4 81.9995 30.4C82.8662 30.4 83.5995 30.5933 84.1995 30.98C84.8129 31.3533 85.2729 31.88 85.5795 32.56C85.8862 33.2267 86.0395 34.0067 86.0395 34.9V40.54C86.0395 40.6733 85.9995 40.7867 85.9195 40.88C85.8395 40.96 85.7329 41 85.5995 41H84.5995C84.4662 41 84.3529 40.96 84.2595 40.88C84.1795 40.7867 84.1395 40.6733 84.1395 40.54V35C84.1395 34.0667 83.9129 33.34 83.4595 32.82C83.0062 32.2867 82.3395 32.02 81.4595 32.02C80.6329 32.02 79.9662 32.2867 79.4595 32.82C78.9662 33.34 78.7195 34.0667 78.7195 35V40.54C78.7195 40.6733 78.6729 40.7867 78.5795 40.88C78.4995 40.96 78.3929 41 78.2595 41H77.2595ZM95.2517 41C94.5051 41 93.8984 40.86 93.4317 40.58C92.9651 40.2867 92.6251 39.88 92.4117 39.36C92.1984 38.8267 92.0917 38.2 92.0917 37.48V32.2H90.5317C90.3984 32.2 90.2851 32.16 90.1917 32.08C90.1117 31.9867 90.0717 31.8733 90.0717 31.74V31.06C90.0717 30.9267 90.1117 30.82 90.1917 30.74C90.2851 30.6467 90.3984 30.6 90.5317 30.6H92.0917V27.26C92.0917 27.1267 92.1317 27.02 92.2117 26.94C92.3051 26.8467 92.4184 26.8 92.5517 26.8H93.4917C93.6251 26.8 93.7317 26.8467 93.8117 26.94C93.9051 27.02 93.9517 27.1267 93.9517 27.26V30.6H96.4317C96.5651 30.6 96.6717 30.6467 96.7517 30.74C96.8451 30.82 96.8917 30.9267 96.8917 31.06V31.74C96.8917 31.8733 96.8451 31.9867 96.7517 32.08C96.6717 32.16 96.5651 32.2 96.4317 32.2H93.9517V37.34C93.9517 37.9667 94.0584 38.46 94.2717 38.82C94.4851 39.18 94.8651 39.36 95.4117 39.36H96.6317C96.7651 39.36 96.8717 39.4067 96.9517 39.5C97.0451 39.58 97.0917 39.6867 97.0917 39.82V40.54C97.0917 40.6733 97.0451 40.7867 96.9517 40.88C96.8717 40.96 96.7651 41 96.6317 41H95.2517ZM104.304 41.2C103.638 41.2 103.031 41.0667 102.484 40.8C101.938 40.5333 101.498 40.1733 101.164 39.72C100.831 39.2667 100.664 38.7533 100.664 38.18C100.664 37.26 101.038 36.5267 101.784 35.98C102.531 35.4333 103.504 35.0733 104.704 34.9L107.684 34.48V33.9C107.684 33.26 107.498 32.76 107.124 32.4C106.764 32.04 106.171 31.86 105.344 31.86C104.744 31.86 104.258 31.98 103.884 32.22C103.524 32.46 103.271 32.7667 103.124 33.14C103.044 33.34 102.904 33.44 102.704 33.44H101.804C101.658 33.44 101.544 33.4 101.464 33.32C101.398 33.2267 101.364 33.12 101.364 33C101.364 32.8 101.438 32.5533 101.584 32.26C101.744 31.9667 101.984 31.68 102.304 31.4C102.624 31.12 103.031 30.8867 103.524 30.7C104.031 30.5 104.644 30.4 105.364 30.4C106.164 30.4 106.838 30.5067 107.384 30.72C107.931 30.92 108.358 31.1933 108.664 31.54C108.984 31.8867 109.211 32.28 109.344 32.72C109.491 33.16 109.564 33.6067 109.564 34.06V40.54C109.564 40.6733 109.518 40.7867 109.424 40.88C109.344 40.96 109.238 41 109.104 41H108.184C108.038 41 107.924 40.96 107.844 40.88C107.764 40.7867 107.724 40.6733 107.724 40.54V39.68C107.551 39.92 107.318 40.16 107.024 40.4C106.731 40.6267 106.364 40.82 105.924 40.98C105.484 41.1267 104.944 41.2 104.304 41.2ZM104.724 39.7C105.271 39.7 105.771 39.5867 106.224 39.36C106.678 39.12 107.031 38.7533 107.284 38.26C107.551 37.7667 107.684 37.1467 107.684 36.4V35.84L105.364 36.18C104.418 36.3133 103.704 36.54 103.224 36.86C102.744 37.1667 102.504 37.56 102.504 38.04C102.504 38.4133 102.611 38.7267 102.824 38.98C103.051 39.22 103.331 39.4 103.664 39.52C104.011 39.64 104.364 39.7 104.724 39.7ZM119.039 41.2C118.093 41.2 117.273 41.02 116.579 40.66C115.899 40.2867 115.373 39.76 114.999 39.08C114.626 38.3867 114.426 37.56 114.399 36.6C114.386 36.4 114.379 36.1333 114.379 35.8C114.379 35.4667 114.386 35.2 114.399 35C114.426 34.04 114.626 33.22 114.999 32.54C115.373 31.8467 115.899 31.32 116.579 30.96C117.273 30.5867 118.093 30.4 119.039 30.4C119.813 30.4 120.473 30.5067 121.019 30.72C121.579 30.9333 122.039 31.2067 122.399 31.54C122.759 31.8733 123.026 32.2333 123.199 32.62C123.386 33.0067 123.486 33.3733 123.499 33.72C123.513 33.8533 123.473 33.96 123.379 34.04C123.286 34.12 123.173 34.16 123.039 34.16H122.079C121.946 34.16 121.846 34.1333 121.779 34.08C121.713 34.0133 121.646 33.9067 121.579 33.76C121.339 33.1067 121.013 32.6467 120.599 32.38C120.186 32.1133 119.673 31.98 119.059 31.98C118.259 31.98 117.606 32.2267 117.099 32.72C116.606 33.2133 116.339 34.0067 116.299 35.1C116.286 35.58 116.286 36.0467 116.299 36.5C116.339 37.6067 116.606 38.4067 117.099 38.9C117.606 39.38 118.259 39.62 119.059 39.62C119.673 39.62 120.186 39.4867 120.599 39.22C121.013 38.9533 121.339 38.4933 121.579 37.84C121.646 37.6933 121.713 37.5933 121.779 37.54C121.846 37.4733 121.946 37.44 122.079 37.44H123.039C123.173 37.44 123.286 37.48 123.379 37.56C123.473 37.64 123.513 37.7467 123.499 37.88C123.486 38.16 123.426 38.4467 123.319 38.74C123.213 39.0333 123.039 39.3333 122.799 39.64C122.573 39.9333 122.286 40.2 121.939 40.44C121.593 40.6667 121.173 40.8533 120.679 41C120.199 41.1333 119.653 41.2 119.039 41.2ZM132.335 41C131.588 41 130.981 40.86 130.515 40.58C130.048 40.2867 129.708 39.88 129.495 39.36C129.281 38.8267 129.175 38.2 129.175 37.48V32.2H127.615C127.481 32.2 127.368 32.16 127.275 32.08C127.195 31.9867 127.155 31.8733 127.155 31.74V31.06C127.155 30.9267 127.195 30.82 127.275 30.74C127.368 30.6467 127.481 30.6 127.615 30.6H129.175V27.26C129.175 27.1267 129.215 27.02 129.295 26.94C129.388 26.8467 129.501 26.8 129.635 26.8H130.575C130.708 26.8 130.815 26.8467 130.895 26.94C130.988 27.02 131.035 27.1267 131.035 27.26V30.6H133.515C133.648 30.6 133.755 30.6467 133.835 30.74C133.928 30.82 133.975 30.9267 133.975 31.06V31.74C133.975 31.8733 133.928 31.9867 133.835 32.08C133.755 32.16 133.648 32.2 133.515 32.2H131.035V37.34C131.035 37.9667 131.141 38.46 131.355 38.82C131.568 39.18 131.948 39.36 132.495 39.36H133.715C133.848 39.36 133.955 39.4067 134.035 39.5C134.128 39.58 134.175 39.6867 134.175 39.82V40.54C134.175 40.6733 134.128 40.7867 134.035 40.88C133.955 40.96 133.848 41 133.715 41H132.335ZM146.249 41C146.116 41 146.003 40.96 145.909 40.88C145.829 40.7867 145.789 40.6733 145.789 40.54V31.06C145.789 30.9267 145.829 30.82 145.909 30.74C146.003 30.6467 146.116 30.6 146.249 30.6H147.149C147.283 30.6 147.389 30.6467 147.469 30.74C147.563 30.82 147.609 30.9267 147.609 31.06V31.76C147.916 31.3467 148.303 31.02 148.769 30.78C149.236 30.5267 149.796 30.4 150.449 30.4C151.956 30.3867 153.023 31 153.649 32.24C153.956 31.68 154.403 31.2333 154.989 30.9C155.576 30.5667 156.243 30.4 156.989 30.4C157.683 30.4 158.309 30.56 158.869 30.88C159.443 31.2 159.889 31.6867 160.209 32.34C160.543 32.98 160.709 33.7867 160.709 34.76V40.54C160.709 40.6733 160.663 40.7867 160.569 40.88C160.489 40.96 160.383 41 160.249 41H159.309C159.176 41 159.063 40.96 158.969 40.88C158.889 40.7867 158.849 40.6733 158.849 40.54V34.94C158.849 34.1933 158.743 33.6067 158.529 33.18C158.316 32.7533 158.029 32.4533 157.669 32.28C157.309 32.1067 156.916 32.02 156.489 32.02C156.143 32.02 155.789 32.1067 155.429 32.28C155.069 32.4533 154.769 32.7533 154.529 33.18C154.303 33.6067 154.189 34.1933 154.189 34.94V40.54C154.189 40.6733 154.143 40.7867 154.049 40.88C153.969 40.96 153.863 41 153.729 41H152.789C152.656 41 152.543 40.96 152.449 40.88C152.369 40.7867 152.329 40.6733 152.329 40.54V34.94C152.329 34.1933 152.216 33.6067 151.989 33.18C151.763 32.7533 151.469 32.4533 151.109 32.28C150.749 32.1067 150.369 32.02 149.969 32.02C149.623 32.02 149.269 32.1067 148.909 32.28C148.549 32.4533 148.249 32.7533 148.009 33.18C147.783 33.6067 147.669 34.1867 147.669 34.92V40.54C147.669 40.6733 147.623 40.7867 147.529 40.88C147.449 40.96 147.343 41 147.209 41H146.249ZM170.103 41.2C168.729 41.2 167.636 40.78 166.823 39.94C166.009 39.0867 165.563 37.9267 165.483 36.46C165.469 36.2867 165.463 36.0667 165.463 35.8C165.463 35.52 165.469 35.2933 165.483 35.12C165.536 34.1733 165.756 33.3467 166.143 32.64C166.529 31.92 167.056 31.3667 167.723 30.98C168.403 30.5933 169.196 30.4 170.103 30.4C171.116 30.4 171.963 30.6133 172.643 31.04C173.336 31.4667 173.863 32.0733 174.223 32.86C174.583 33.6467 174.763 34.5667 174.763 35.62V35.96C174.763 36.1067 174.716 36.22 174.623 36.3C174.543 36.38 174.436 36.42 174.303 36.42H167.383C167.383 36.4333 167.383 36.46 167.383 36.5C167.383 36.54 167.383 36.5733 167.383 36.6C167.409 37.1467 167.529 37.66 167.743 38.14C167.956 38.6067 168.263 38.9867 168.663 39.28C169.063 39.5733 169.543 39.72 170.103 39.72C170.583 39.72 170.983 39.6467 171.303 39.5C171.623 39.3533 171.883 39.1933 172.083 39.02C172.283 38.8333 172.416 38.6933 172.483 38.6C172.603 38.4267 172.696 38.3267 172.763 38.3C172.829 38.26 172.936 38.24 173.083 38.24H174.043C174.176 38.24 174.283 38.28 174.363 38.36C174.456 38.4267 174.496 38.5267 174.483 38.66C174.469 38.86 174.363 39.1067 174.163 39.4C173.963 39.68 173.676 39.96 173.303 40.24C172.929 40.52 172.476 40.7533 171.943 40.94C171.409 41.1133 170.796 41.2 170.103 41.2ZM167.383 35.04H172.863V34.98C172.863 34.38 172.749 33.8467 172.523 33.38C172.309 32.9133 171.996 32.5467 171.583 32.28C171.169 32 170.676 31.86 170.103 31.86C169.529 31.86 169.036 32 168.623 32.28C168.223 32.5467 167.916 32.9133 167.703 33.38C167.489 33.8467 167.383 34.38 167.383 34.98V35.04Z" fill="url(#paint1_linear_13216_4686)"/>
<defs>
<linearGradient id="paint0_linear_13216_4686" x1="0" y1="33.5" x2="223" y2="33.5" gradientUnits="userSpaceOnUse">
<stop stop-color="#1F2833"/>
<stop offset="1" stop-color="#1F2833" stop-opacity="0.4"/>
</linearGradient>
<linearGradient id="paint1_linear_13216_4686" x1="176" y1="34" x2="48" y2="34" gradientUnits="userSpaceOnUse">
<stop stop-color="#1F2833"/>
<stop offset="1" stop-color="#1F2833" stop-opacity="0.4"/>
</linearGradient>
</defs>
</svg>
