<svg width="33" height="33" viewBox="0 0 33 33" fill="none" xmlns="http://www.w3.org/2000/svg">
<g clip-path="url(#clip0_13216_4702)">
<path d="M0.179688 23.7966L2.88447 28.4702C3.15334 29.0055 3.56574 29.4554 4.0756 29.7698C4.58546 30.0841 5.17268 30.2505 5.77166 30.2503H23.7239L20.0001 23.7966H0.179688ZM31.618 22.0731L21.1637 3.78753C20.8886 3.26892 20.4774 2.83504 19.9743 2.5325C19.4711 2.22995 18.8951 2.07017 18.308 2.07031H12.7475L28.9321 30.2252L31.4922 25.7906C31.6117 25.5893 32.8132 23.9224 31.618 22.0731ZM17.3519 19.2111L10.0867 6.6307L2.82157 19.2111H17.3519Z" fill="#1F2833"/>
</g>
<defs>
<clipPath id="clip0_13216_4702">
<rect width="32.2057" height="32.2057" fill="white" transform="translate(0.0546875 0.0625)"/>
</clipPath>
</defs>
</svg>
